<svg width="168" height="52" viewBox="0 0 168 52" fill="none" xmlns="http://www.w3.org/2000/svg">
<path d="M6.49525 1.54199L161.505 1.54199C164.54 1.54199 167 4.0023 167 7.03724V45.141C167 48.1759 164.54 50.6362 161.505 50.6362L6.49525 50.6362C3.46031 50.6362 1 48.1759 1 45.141L1 7.03724C1 4.0023 3.46031 1.54199 6.49525 1.54199Z" stroke="#E9EEF1" stroke-width="2"/>
<path d="M15.2697 21.3775C12.5436 26.1109 14.2792 33.2811 17.2945 37.6376C18.7934 39.8114 20.3186 41.7661 22.4048 41.7661H22.5275C23.3508 41.7105 24.1551 41.493 24.8942 41.1262C25.7711 40.6981 26.7322 40.4705 27.7079 40.4601C28.6367 40.4711 29.5509 40.6929 30.3814 41.1087C31.1776 41.5118 32.0574 41.722 32.9497 41.7222C35.2989 41.7222 36.7364 39.5747 38.0162 37.7164C38.9644 36.3111 39.7109 34.7797 40.2339 33.1671C40.255 33.1053 40.2523 33.0379 40.2263 32.9779C40.2004 32.918 40.1531 32.8698 40.0936 32.8428C38.8885 32.3298 37.8598 31.4757 37.134 30.3855C36.4082 29.2953 36.0171 28.0166 36.0089 26.7069C36.0246 25.5435 36.3332 24.4029 36.9061 23.3902C37.4791 22.3775 38.298 21.5255 39.2872 20.9129C39.344 20.8729 39.3844 20.8138 39.4012 20.7464C39.4136 20.6761 39.3979 20.6036 39.3573 20.5448C38.6794 19.5734 37.7848 18.7731 36.7442 18.2072C35.7036 17.6412 34.5455 17.3251 33.3617 17.284C33.1865 17.2748 33.011 17.2748 32.8358 17.284C31.5341 17.3611 30.2584 17.6823 29.0754 18.2307C28.5051 18.5023 27.8958 18.6827 27.2697 18.7654C26.6247 18.6872 25.9969 18.5036 25.4114 18.2219C24.3811 17.7243 23.2656 17.4268 22.1243 17.3454H22.0367C20.6579 17.3819 19.3116 17.7719 18.1267 18.4779C16.9418 19.1839 15.9581 20.1823 15.2697 21.3775Z" fill="#E9EEF1"/>
<path d="M33.379 9.56185C31.4997 9.74044 29.761 10.6349 28.5229 12.06C27.901 12.7495 27.4251 13.5576 27.1238 14.4358C26.8225 15.3141 26.7021 16.2442 26.7698 17.1703C26.7775 17.2295 26.8052 17.2843 26.8482 17.3257C26.8912 17.3672 26.947 17.3927 27.0065 17.3982H27.3483C28.2379 17.3562 29.1083 17.124 29.9006 16.7172C30.6929 16.3105 31.3888 15.7387 31.9415 15.0403C33.1813 13.5805 33.7954 11.6907 33.6507 9.78098C33.6384 9.71836 33.6044 9.66205 33.5547 9.62198C33.505 9.58191 33.4428 9.56064 33.379 9.56185Z" fill="#E9EEF1"/>
<path d="M52.5491 9.43043H55.7135C56.4777 9.41454 57.2338 9.58923 57.9136 9.93879C58.5397 10.2609 59.0623 10.7531 59.4213 11.3588C59.7721 11.9887 59.9562 12.6978 59.9562 13.4188C59.9562 14.1398 59.7721 14.8488 59.4213 15.4787C59.0623 16.0844 58.5397 16.5766 57.9136 16.8987C57.2345 17.2509 56.4784 17.4286 55.7135 17.4158H52.5491V9.43043ZM55.6609 16.8899C56.3383 16.9037 57.0089 16.7533 57.6156 16.4516C58.1577 16.1768 58.6084 15.7505 58.9129 15.2244C59.2248 14.6746 59.3823 14.0508 59.3687 13.4188C59.3807 12.7898 59.2233 12.169 58.9129 11.6218C58.6113 11.0935 58.1598 10.6664 57.6156 10.3946C57.0104 10.0889 56.3387 9.93829 55.6609 9.95634H53.1627V16.8899H55.6609Z" fill="#E9EEF1"/>
<path d="M62.5945 17.0738C62.1476 16.8171 61.7782 16.4447 61.5251 15.9957C61.2718 15.5146 61.1394 14.9791 61.1394 14.4354C61.1394 13.8917 61.2718 13.3563 61.5251 12.8752C61.7782 12.4262 62.1476 12.0537 62.5945 11.797C63.0614 11.5438 63.5842 11.4112 64.1153 11.4112C64.6465 11.4112 65.1692 11.5438 65.6361 11.797C66.0831 12.0537 66.4525 12.4262 66.7055 12.8752C66.9589 13.3563 67.0913 13.8917 67.0913 14.4354C67.0913 14.9791 66.9589 15.5146 66.7055 15.9957C66.4525 16.4447 66.0831 16.8171 65.6361 17.0738C65.1692 17.327 64.6465 17.4597 64.1153 17.4597C63.5842 17.4597 63.0614 17.327 62.5945 17.0738ZM65.3381 16.6268C65.7074 16.4235 66.0114 16.1195 66.2147 15.7502C66.4281 15.3448 66.5396 14.8936 66.5396 14.4354C66.5396 13.9772 66.4281 13.526 66.2147 13.1206C66.0114 12.7513 65.7074 12.4473 65.3381 12.244C64.9681 12.0304 64.5469 11.9213 64.1197 11.9285C63.6897 11.9215 63.2658 12.0305 62.8925 12.244C62.525 12.4496 62.2216 12.753 62.016 13.1206C61.8026 13.526 61.691 13.9772 61.691 14.4354C61.691 14.8936 61.8026 15.3448 62.016 15.7502C62.2216 16.1178 62.525 16.4212 62.8925 16.6268C63.2658 16.8403 63.6897 16.9493 64.1197 16.9423C64.5469 16.9495 64.9681 16.8404 65.3381 16.6268Z" fill="#E9EEF1"/>
<path d="M77.1979 11.4547L74.9364 17.4152H74.4017L72.3944 12.2435L70.3783 17.4152H69.8173L67.5558 11.4547H68.108L70.0891 16.7754L72.1227 11.4547H72.6135L74.6296 16.714L76.6369 11.4547H77.1979Z" fill="#E9EEF1"/>
<path d="M83.1933 12.06C83.4237 12.3122 83.6007 12.6085 83.7137 12.9308C83.8267 13.2532 83.8733 13.595 83.8508 13.9359V17.4421H83.281V14.006C83.3173 13.4507 83.1348 12.9032 82.7726 12.4808C82.5848 12.3001 82.3618 12.1602 82.1175 12.0697C81.8731 11.9792 81.6127 11.9401 81.3526 11.9549C81.0485 11.9393 80.7445 11.9866 80.4595 12.0936C80.1744 12.2007 79.9145 12.3653 79.6959 12.5772C79.4886 12.8054 79.3285 13.0725 79.2247 13.3628C79.1209 13.6531 79.0755 13.961 79.0911 14.269V17.4421H78.5213V11.4815H79.0648V12.7701C79.2681 12.3615 79.5885 12.0227 79.9852 11.797C80.4265 11.5502 80.9259 11.4262 81.4315 11.4377C81.7519 11.4175 82.0732 11.4622 82.3759 11.5691C82.6787 11.6761 82.9567 11.843 83.1933 12.06Z" fill="#E9EEF1"/>
<path d="M86.2006 8.94781H86.7703V17.4153H86.2006V8.94781Z" fill="#E9EEF1"/>
<path d="M89.978 17.074C89.5311 16.8173 89.1617 16.4448 88.9086 15.9958C88.6553 15.5148 88.5229 14.9792 88.5229 14.4355C88.5229 13.8918 88.6553 13.3564 88.9086 12.8754C89.1617 12.4264 89.5311 12.0538 89.978 11.7971C90.4441 11.5378 90.9699 11.4049 91.5032 11.4115C92.0338 11.4048 92.5568 11.5377 93.0197 11.7971C93.4685 12.0513 93.8385 12.4245 94.0891 12.8754C94.3424 13.3564 94.4748 13.8918 94.4748 14.4355C94.4748 14.9792 94.3424 15.5148 94.0891 15.9958C93.8385 16.4467 93.4685 16.8197 93.0197 17.074C92.5568 17.3333 92.0338 17.4664 91.5032 17.4597C90.9699 17.4663 90.4441 17.3333 89.978 17.074ZM92.7304 16.6269C93.0985 16.4221 93.4021 16.1185 93.607 15.7504C93.8204 15.345 93.9319 14.8937 93.9319 14.4355C93.9319 13.9774 93.8204 13.5261 93.607 13.1207C93.4021 12.7526 93.0985 12.449 92.7304 12.2442C92.3546 12.037 91.9324 11.9284 91.5032 11.9284C91.0741 11.9284 90.6519 12.037 90.2761 12.2442C89.9085 12.4497 89.6051 12.7531 89.3995 13.1207C89.1861 13.5261 89.0745 13.9774 89.0745 14.4355C89.0745 14.8937 89.1861 15.345 89.3995 15.7504C89.6051 16.1179 89.9085 16.4213 90.2761 16.6269C90.6519 16.8341 91.0741 16.9428 91.5032 16.9428C91.9324 16.9428 92.3546 16.8341 92.7304 16.6269Z" fill="#E9EEF1"/>
<path d="M99.9277 11.9805C100.136 12.2004 100.297 12.4611 100.399 12.7463C100.502 13.0314 100.544 13.3348 100.524 13.6372V17.4151H99.9716V16.3545C99.7852 16.7059 99.4942 16.9907 99.1388 17.1696C98.7341 17.3726 98.2854 17.4721 97.8328 17.4589C97.2703 17.4907 96.7147 17.3231 96.2637 16.9855C96.0893 16.835 95.9494 16.6486 95.8536 16.4391C95.7577 16.2296 95.7081 16.0019 95.7081 15.7715C95.7081 15.5411 95.7577 15.3134 95.8536 15.1039C95.9494 14.8944 96.0893 14.7081 96.2637 14.5575C96.7543 14.2061 97.3542 14.0413 97.9554 14.0929H99.9978V13.6108C100.015 13.3802 99.9828 13.1486 99.9043 12.9312C99.8257 12.7137 99.7023 12.5152 99.542 12.3486C99.179 12.0342 98.7062 11.8766 98.2272 11.9103C97.8404 11.9089 97.4568 11.9803 97.0964 12.1206C96.7568 12.2393 96.444 12.4241 96.1761 12.6642L95.8868 12.2521C96.2011 11.9769 96.5678 11.7683 96.9649 11.6386C97.3837 11.4871 97.8257 11.41 98.271 11.4107C98.8757 11.3826 99.4682 11.5864 99.9277 11.9805ZM99.1739 16.6437C99.5302 16.4023 99.8029 16.0562 99.954 15.6532V14.5399H97.9204C97.4735 14.5021 97.0267 14.6131 96.6494 14.8556C96.5198 14.9608 96.4166 15.0948 96.3481 15.247C96.2796 15.3992 96.2477 15.5654 96.2549 15.7321C96.2549 15.9022 96.2946 16.07 96.3706 16.2221C96.4467 16.3742 96.5571 16.5066 96.6932 16.6087C97.0501 16.854 97.4795 16.9713 97.9116 16.9417C98.3524 16.9677 98.7912 16.8641 99.1739 16.6437Z" fill="#E9EEF1"/>
<path d="M108.175 8.94781V17.4153H107.614V16.0129C107.391 16.4555 107.048 16.8262 106.623 17.0822C106.183 17.3336 105.684 17.4637 105.177 17.4592C104.649 17.466 104.129 17.3329 103.669 17.0735C103.228 16.816 102.864 16.4434 102.618 15.9953C102.356 15.5174 102.223 14.9797 102.232 14.435C102.224 13.8876 102.357 13.3475 102.618 12.8661C102.862 12.4188 103.226 12.0484 103.669 11.7966C104.129 11.5372 104.649 11.4042 105.177 11.411C105.679 11.4022 106.174 11.5327 106.606 11.7879C107.027 12.0425 107.372 12.4058 107.605 12.8398V8.94781L108.175 8.94781ZM106.422 16.6264C106.79 16.4216 107.094 16.118 107.298 15.7499C107.512 15.3445 107.623 14.8932 107.623 14.435C107.623 13.9769 107.512 13.5256 107.298 13.1202C107.094 12.7521 106.79 12.4485 106.422 12.2437C106.046 12.0365 105.624 11.9279 105.195 11.9279C104.765 11.9279 104.343 12.0365 103.967 12.2437C103.6 12.4492 103.296 12.7526 103.091 13.1202C102.877 13.5256 102.766 13.9769 102.766 14.435C102.766 14.8932 102.877 15.3445 103.091 15.7499C103.296 16.1174 103.6 16.4208 103.967 16.6264C104.343 16.8336 104.765 16.9423 105.195 16.9423C105.624 16.9423 106.046 16.8336 106.422 16.6264Z" fill="#E9EEF1"/>
<path d="M114.32 17.074C113.871 16.8197 113.501 16.4467 113.251 15.9958C112.997 15.5148 112.865 14.9792 112.865 14.4355C112.865 13.8918 112.997 13.3564 113.251 12.8754C113.501 12.4245 113.871 12.0513 114.32 11.7971C114.783 11.5377 115.306 11.4048 115.837 11.4115C116.37 11.4049 116.896 11.5378 117.362 11.7971C117.809 12.0538 118.178 12.4264 118.431 12.8754C118.685 13.3564 118.817 13.8918 118.817 14.4355C118.817 14.9792 118.685 15.5148 118.431 15.9958C118.178 16.4448 117.809 16.8173 117.362 17.074C116.896 17.3333 116.37 17.4663 115.837 17.4597C115.306 17.4664 114.783 17.3333 114.32 17.074ZM117.064 16.6269C117.431 16.4213 117.735 16.1179 117.94 15.7504C118.154 15.345 118.265 14.8937 118.265 14.4355C118.265 13.9774 118.154 13.5261 117.94 13.1207C117.735 12.7531 117.431 12.4497 117.064 12.2442C116.688 12.037 116.266 11.9284 115.837 11.9284C115.407 11.9284 114.985 12.037 114.609 12.2442C114.241 12.449 113.938 12.7526 113.733 13.1207C113.519 13.5261 113.408 13.9774 113.408 14.4355C113.408 14.8937 113.519 15.345 113.733 15.7504C113.938 16.1185 114.241 16.4221 114.609 16.6269C114.985 16.8341 115.407 16.9428 115.837 16.9428C116.266 16.9428 116.688 16.8341 117.064 16.6269Z" fill="#E9EEF1"/>
<path d="M125.26 12.0601C125.489 12.313 125.664 12.6095 125.776 12.9319C125.887 13.2542 125.932 13.5957 125.908 13.936V17.4422H125.339V14.006C125.359 13.7309 125.324 13.4545 125.237 13.1927C125.149 12.931 125.011 12.6891 124.83 12.4809C124.644 12.2989 124.421 12.1581 124.176 12.0675C123.931 11.9769 123.671 11.9386 123.41 11.9549C123.108 11.939 122.805 11.9862 122.521 12.0933C122.237 12.2004 121.979 12.3652 121.762 12.5773C121.555 12.8055 121.395 13.0725 121.291 13.3629C121.187 13.6532 121.142 13.9611 121.158 14.2691V17.4422H120.588V11.4816H121.131V12.7702C121.329 12.3578 121.651 12.0174 122.052 11.7971C122.49 11.5502 122.986 11.4261 123.489 11.4378C123.811 11.4174 124.134 11.462 124.438 11.5689C124.742 11.6758 125.022 11.8428 125.26 12.0601Z" fill="#E9EEF1"/>
<path d="M134.147 17.0388C133.99 17.1783 133.805 17.2828 133.604 17.3456C133.384 17.4231 133.153 17.4616 132.92 17.4595C132.702 17.4742 132.484 17.4436 132.279 17.3696C132.074 17.2957 131.886 17.1801 131.728 17.03C131.582 16.8691 131.47 16.6807 131.398 16.4761C131.326 16.2714 131.295 16.0546 131.307 15.8379V11.946H130.212V11.4552H131.307V10.1578H131.877V11.4552H133.805V11.946H131.877V15.7853C131.851 16.103 131.952 16.418 132.157 16.6618C132.265 16.7689 132.394 16.8517 132.536 16.9046C132.678 16.9575 132.83 16.9793 132.981 16.9686C133.32 16.9802 133.649 16.8608 133.902 16.6355L134.147 17.0388Z" fill="#E9EEF1"/>
<path d="M140.406 12.0594C140.633 12.3134 140.807 12.61 140.919 12.9321C141.03 13.2541 141.076 13.5952 141.054 13.9352V17.4414H140.485V14.0053C140.505 13.7301 140.47 13.4537 140.383 13.192C140.295 12.9303 140.157 12.6883 139.976 12.4801C139.789 12.2981 139.567 12.1574 139.322 12.0668C139.077 11.9762 138.817 11.9378 138.556 11.9542C138.253 11.9383 137.951 11.9854 137.667 12.0926C137.383 12.1997 137.125 12.3644 136.908 12.5765C136.701 12.8048 136.541 13.0718 136.437 13.3621C136.333 13.6524 136.288 13.9604 136.303 14.2683V17.4414H135.734V8.97391H136.303V12.7256C136.49 12.3263 136.796 11.9954 137.18 11.7789C137.615 11.5431 138.105 11.4253 138.6 11.4371C138.928 11.4118 139.257 11.4539 139.567 11.561C139.878 11.668 140.163 11.8377 140.406 12.0594Z" fill="#E9EEF1"/>
<path d="M148.444 14.5756H143.325C143.332 15.011 143.453 15.437 143.675 15.8115C143.888 16.1624 144.191 16.4499 144.552 16.6442C144.944 16.8488 145.381 16.9513 145.823 16.9422C146.193 16.9453 146.559 16.8737 146.901 16.7319C147.224 16.5977 147.508 16.3836 147.725 16.1095L148.058 16.4865C147.794 16.8023 147.457 17.049 147.076 17.2052C146.675 17.376 146.242 17.4626 145.805 17.4595C145.252 17.4671 144.706 17.3344 144.219 17.0737C143.767 16.8174 143.392 16.4453 143.132 15.9956C142.863 15.52 142.727 14.9813 142.737 14.4353C142.728 13.8915 142.857 13.3544 143.114 12.8751C143.35 12.4308 143.701 12.0583 144.131 11.7969C144.576 11.5441 145.079 11.4112 145.591 11.4112C146.102 11.4112 146.605 11.5441 147.05 11.7969C147.48 12.0479 147.829 12.4158 148.058 12.8576C148.312 13.335 148.441 13.8685 148.435 14.4091L148.444 14.5756ZM144.49 12.1914C144.159 12.3814 143.881 12.6529 143.684 12.9803C143.48 13.3309 143.36 13.7238 143.333 14.1285H147.9C147.882 13.7263 147.764 13.335 147.558 12.9891C147.358 12.6614 147.077 12.3899 146.743 12.2002C146.402 12.0056 146.014 11.9057 145.621 11.9108C145.226 11.9056 144.837 12.0022 144.49 12.1914Z" fill="#E9EEF1"/>
<path d="M60.9991 35.0602H54.1708L52.8297 38.2157H50.2L56.3359 24.5766H58.8341L64.9699 38.2157H62.3403L60.9991 35.0602ZM60.1226 33.0704L57.5455 27.1099L54.9948 33.0704H60.1226Z" fill="#E9EEF1"/>
<path d="M74.9981 28.39C75.7888 28.8274 76.4416 29.4771 76.8827 30.2658C77.3503 31.1192 77.586 32.0803 77.5664 33.0532C77.5847 34.0288 77.3491 34.9924 76.8827 35.8495C76.4443 36.6402 75.7908 37.2906 74.9981 37.7253C74.1657 38.1799 73.2291 38.4096 72.2808 38.3915C71.6561 38.4211 71.0327 38.3105 70.4563 38.0678C69.8799 37.8251 69.3652 37.4566 68.9499 36.989V42.0379H66.5131V27.8466H68.8271V29.2139C69.2234 28.7208 69.7394 28.3376 70.326 28.1008C70.9465 27.8488 71.6111 27.7235 72.2808 27.7326C73.2278 27.7158 74.1634 27.9422 74.9981 28.39ZM74.2179 35.4024C74.778 34.7445 75.0856 33.9086 75.0856 33.0446C75.0856 32.1805 74.778 31.3446 74.2179 30.6866C73.9318 30.3937 73.5873 30.1643 73.2067 30.0133C72.8262 29.8623 72.4181 29.793 72.009 29.81C71.4569 29.8041 70.9128 29.9431 70.4312 30.2132C69.9591 30.4791 69.5728 30.8745 69.318 31.3528C69.0471 31.8834 68.9059 32.4706 68.9059 33.0664C68.9059 33.6621 69.0471 34.2495 69.318 34.7801C69.5703 35.2602 69.9572 35.6561 70.4312 35.9196C70.9112 36.1937 71.4564 36.333 72.009 36.3229C72.4182 36.3301 72.8244 36.2519 73.2017 36.0934C73.579 35.935 73.9191 35.6997 74.2004 35.4024H74.2179Z" fill="#E9EEF1"/>
<path d="M88.3742 28.3899C89.1626 28.8274 89.8125 29.4773 90.25 30.2657C90.7177 31.1191 90.9534 32.0802 90.9337 33.0531C90.9521 34.0287 90.7165 34.9923 90.25 35.8494C89.8148 36.6395 89.1643 37.2899 88.3742 37.7252C87.5383 38.179 86.5991 38.4086 85.6481 38.3914C85.0234 38.421 84.4 38.3104 83.8237 38.0677C83.2473 37.825 82.7326 37.4565 82.3172 36.9889V42.0378H79.8804V27.8464H82.2033V29.2138C82.5962 28.721 83.1094 28.3377 83.6934 28.1007C84.314 27.8493 84.9786 27.7241 85.6481 27.7325C86.5979 27.7169 87.536 27.9432 88.3742 28.3899ZM87.5941 35.4023C88.1542 34.7443 88.4617 33.9085 88.4617 33.0444C88.4617 32.1804 88.1542 31.3444 87.5941 30.6865C87.3063 30.3934 86.9602 30.1639 86.5782 30.0129C86.1962 29.8619 85.7868 29.7928 85.3764 29.8099C84.8242 29.8039 84.2802 29.9429 83.7986 30.2131C83.3285 30.4816 82.9429 30.8764 82.6854 31.3526C82.4199 31.8849 82.2817 32.4715 82.2817 33.0663C82.2817 33.661 82.4199 34.2478 82.6854 34.78C82.9405 35.258 83.3267 35.6532 83.7986 35.9194C84.2786 36.1935 84.8237 36.3329 85.3764 36.3227C85.7898 36.3326 86.2007 36.2557 86.5826 36.0972C86.9646 35.9387 87.3091 35.702 87.5941 35.4023Z" fill="#E9EEF1"/>
<path d="M100.041 37.9616C99.1928 37.7324 98.4018 37.3293 97.7179 36.7782L98.5944 34.8059C99.2106 35.2834 99.9044 35.6512 100.646 35.893C101.432 36.1658 102.259 36.305 103.091 36.3049C103.878 36.3593 104.664 36.1922 105.361 35.8228C105.59 35.6939 105.78 35.5068 105.912 35.2804C106.045 35.054 106.115 34.7965 106.115 34.5343C106.119 34.3527 106.084 34.1724 106.011 34.0059C105.938 33.8394 105.83 33.6907 105.694 33.5701C105.385 33.3016 105.024 33.0987 104.634 32.974C104.204 32.8337 103.617 32.6672 102.881 32.4919C102.025 32.2951 101.182 32.0462 100.356 31.7468C99.7178 31.5023 99.1489 31.1051 98.6996 30.5898C98.2103 29.988 97.9633 29.2252 98.0071 28.4509C97.9985 27.7208 98.2125 27.0053 98.6207 26.3998C99.0797 25.7385 99.7228 25.2265 100.47 24.9273C101.432 24.5368 102.465 24.3517 103.503 24.3838C104.331 24.3849 105.155 24.4879 105.957 24.6906C106.696 24.8679 107.4 25.1639 108.044 25.5671L107.246 27.5394C106.66 27.1947 106.033 26.9266 105.379 26.7417C104.763 26.5644 104.126 26.473 103.486 26.47C102.707 26.4139 101.928 26.5909 101.25 26.9784C101.024 27.1209 100.839 27.3191 100.711 27.5539C100.584 27.7888 100.519 28.0524 100.523 28.3195C100.518 28.5 100.553 28.6793 100.626 28.8446C100.698 29.0098 100.807 29.1568 100.944 29.2749C101.256 29.5376 101.616 29.7371 102.004 29.8623C102.434 30.0025 103.012 30.169 103.757 30.3443C104.606 30.5321 105.441 30.7781 106.255 31.0806C106.894 31.329 107.465 31.7256 107.921 32.2377C108.405 32.8287 108.652 33.5786 108.613 34.3414C108.618 35.071 108.404 35.7852 108 36.3925C107.53 37.0466 106.882 37.5517 106.133 37.8476C105.168 38.2413 104.132 38.4294 103.091 38.3999C102.058 38.4096 101.029 38.2618 100.041 37.9616Z" fill="#E9EEF1"/>
<path d="M117.151 37.6546C116.843 37.8999 116.488 38.079 116.108 38.1806C115.685 38.2977 115.249 38.3566 114.811 38.3559C113.853 38.4165 112.91 38.1021 112.181 37.4794C111.854 37.1279 111.603 36.7133 111.444 36.2609C111.284 35.8086 111.219 35.3283 111.252 34.8497V29.8358H109.499V27.8899H111.252V25.5144H113.645V27.8899H116.432V29.8358H113.645V34.7884C113.615 35.207 113.747 35.6211 114.013 35.9454C114.151 36.0858 114.319 36.1944 114.503 36.264C114.688 36.3336 114.886 36.3625 115.082 36.3486C115.574 36.3669 116.057 36.2152 116.45 35.9191L117.151 37.6546Z" fill="#E9EEF1"/>
<path d="M120.658 37.6725C119.83 37.239 119.143 36.5794 118.677 35.7704C118.211 34.9278 117.967 33.9808 117.967 33.018C117.967 32.0553 118.211 31.1082 118.677 30.2657C119.149 29.4678 119.835 28.8181 120.658 28.3898C121.543 27.9457 122.52 27.7143 123.511 27.7143C124.502 27.7143 125.479 27.9457 126.364 28.3898C127.187 28.8251 127.873 29.4807 128.345 30.2832C128.811 31.1258 129.055 32.0728 129.055 33.0356C129.055 33.9984 128.811 34.9453 128.345 35.7879C127.876 36.5948 127.189 37.2539 126.364 37.69C125.48 38.1396 124.503 38.374 123.511 38.374C122.519 38.374 121.542 38.1396 120.658 37.69V37.6725ZM125.724 35.3759C126.289 34.7203 126.6 33.8836 126.6 33.018C126.6 32.1525 126.289 31.3157 125.724 30.6601C125.434 30.3672 125.087 30.138 124.703 29.987C124.32 29.8361 123.909 29.7668 123.498 29.7835C123.089 29.7665 122.681 29.8358 122.3 29.9868C121.919 30.1378 121.575 30.3672 121.289 30.6601C120.729 31.318 120.421 32.154 120.421 33.018C120.421 33.8821 120.729 34.7179 121.289 35.3759C121.576 35.6674 121.921 35.896 122.301 36.0469C122.681 36.1978 123.089 36.2678 123.498 36.2525C123.904 36.2686 124.31 36.2016 124.69 36.0554C125.07 35.9092 125.416 35.6869 125.707 35.4022L125.724 35.3759Z" fill="#E9EEF1"/>
<path d="M137.4 27.6975V30.0117C137.212 29.9784 137.021 29.9608 136.83 29.9591C136.424 29.9352 136.016 29.996 135.635 30.1378C135.253 30.2797 134.905 30.4994 134.613 30.783C134.042 31.4412 133.755 32.2983 133.815 33.1672V38.2162H131.378V27.8115H133.692V29.3279C134.393 28.241 135.629 27.6975 137.4 27.6975Z" fill="#E9EEF1"/>
<path d="M149.11 33.7981H140.95C141.069 34.5275 141.469 35.1816 142.063 35.6213C142.721 36.0828 143.512 36.3167 144.316 36.2875C144.84 36.3044 145.362 36.2127 145.849 36.0181C146.337 35.8235 146.778 35.5302 147.147 35.1567L148.453 36.6556C147.982 37.2171 147.38 37.6536 146.7 37.9266C145.823 38.2484 144.89 38.3917 143.957 38.3481C143.024 38.3044 142.108 38.0746 141.265 37.6724C140.424 37.2452 139.724 36.5849 139.249 35.7703C138.768 34.9339 138.523 33.9827 138.539 33.0179C138.524 32.0583 138.763 31.1117 139.232 30.2743C139.68 29.4723 140.345 28.813 141.151 28.3722C141.999 27.9154 142.95 27.683 143.912 27.6972C144.863 27.68 145.803 27.9095 146.638 28.3634C147.429 28.8031 148.077 29.4602 148.506 30.2568C148.966 31.122 149.199 32.0904 149.18 33.0705C149.154 33.2458 149.137 33.4825 149.11 33.7981ZM141.914 30.2919C141.369 30.7632 141.017 31.4183 140.923 32.1326H146.831C146.752 31.4241 146.412 30.7708 145.876 30.3006C145.314 29.8496 144.615 29.6037 143.895 29.6037C143.174 29.6037 142.476 29.8496 141.914 30.3006V30.2919Z" fill="#E9EEF1"/>
</svg>
