<svg width="168" height="53" viewBox="0 0 168 53" fill="none" xmlns="http://www.w3.org/2000/svg">
<path d="M161.505 0.952881L6.49525 0.952881C2.90803 0.952881 0 3.8609 0 7.44813L0 45.5519C0 49.1391 2.90803 52.0471 6.49525 52.0471L161.505 52.0471C165.092 52.0471 168 49.1391 168 45.5519V7.44813C168 3.8609 165.092 0.952881 161.505 0.952881Z" fill="#276BFE"/>
<path d="M15.2693 21.7886C12.5432 26.522 14.2788 33.6923 17.2941 38.0487C18.793 40.2226 20.3182 42.1773 22.4044 42.1773H22.5271C23.3504 42.1216 24.1547 41.9042 24.8938 41.5374C25.7707 41.1093 26.7318 40.8817 27.7076 40.8712C28.6363 40.8823 29.5505 41.1041 30.3811 41.5198C31.1772 41.923 32.057 42.1331 32.9493 42.1334C35.2985 42.1334 36.736 39.9859 38.0158 38.1276C38.964 36.7223 39.7105 35.1909 40.2335 33.5782C40.2546 33.5164 40.2519 33.449 40.2259 33.3891C40.2 33.3291 40.1527 33.2809 40.0932 33.2539C38.8881 32.741 37.8594 31.8869 37.1336 30.7966C36.4078 29.7064 36.0167 28.4277 36.0085 27.118C36.0242 25.9546 36.3328 24.814 36.9057 23.8013C37.4787 22.7887 38.2976 21.9366 39.2868 21.324C39.3436 21.284 39.384 21.2249 39.4008 21.1576C39.4132 21.0872 39.3975 21.0148 39.3569 20.956C38.679 19.9846 37.7844 19.1843 36.7438 18.6183C35.7032 18.0524 34.5452 17.7363 33.3613 17.6951C33.1861 17.6859 33.0106 17.6859 32.8354 17.6951C31.5337 17.7722 30.258 18.0934 29.075 18.6419C28.5047 18.9134 27.8954 19.0938 27.2693 19.1765C26.6243 19.0983 25.9965 18.9147 25.411 18.6331C24.3807 18.1354 23.2652 17.838 22.1239 17.7565H22.0363C20.6575 17.7931 19.3112 18.183 18.1263 18.889C16.9414 19.595 15.9577 20.5935 15.2693 21.7886Z" fill="#E9EEF1"/>
<path d="M33.3793 9.97295C31.5 10.1515 29.7613 11.046 28.5232 12.4711C27.9014 13.1606 27.4254 13.9687 27.1242 14.847C26.8229 15.7252 26.7025 16.6553 26.7701 17.5814C26.7779 17.6406 26.8055 17.6954 26.8485 17.7368C26.8915 17.7783 26.9473 17.8038 27.0068 17.8093H27.3486C28.2383 17.7673 29.1086 17.5351 29.9009 17.1283C30.6932 16.7216 31.3891 16.1498 31.9418 15.4514C33.1816 13.9916 33.7958 12.1018 33.6511 10.1921C33.6387 10.1295 33.6047 10.0732 33.555 10.0331C33.5054 9.99301 33.4431 9.97174 33.3793 9.97295Z" fill="#E9EEF1"/>
<path d="M52.5494 9.84133H55.7138C56.478 9.82544 57.2342 10.0001 57.914 10.3497C58.5401 10.6718 59.0626 11.164 59.4216 11.7697C59.7724 12.3996 59.9565 13.1087 59.9565 13.8297C59.9565 14.5507 59.7724 15.2597 59.4216 15.8896C59.0626 16.4953 58.5401 16.9875 57.914 17.3096C57.2348 17.6618 56.4787 17.8395 55.7138 17.8267H52.5494V9.84133ZM55.6612 17.3008C56.3386 17.3146 57.0092 17.1642 57.6159 16.8625C58.1581 16.5877 58.6088 16.1614 58.9132 15.6353C59.2251 15.0855 59.3826 14.4617 59.369 13.8297C59.381 13.2007 59.2236 12.5799 58.9132 12.0327C58.6116 11.5044 58.1602 11.0773 57.6159 10.8055C57.0107 10.4998 56.339 10.3492 55.6612 10.3672H53.163V17.3008H55.6612Z" fill="#E9EEF1"/>
<path d="M62.5945 17.4846C62.1476 17.2279 61.7782 16.8555 61.5251 16.4065C61.2718 15.9254 61.1394 15.3899 61.1394 14.8462C61.1394 14.3025 61.2718 13.7671 61.5251 13.286C61.7782 12.837 62.1476 12.4645 62.5945 12.2078C63.0614 11.9546 63.5842 11.822 64.1153 11.822C64.6465 11.822 65.1692 11.9546 65.6361 12.2078C66.0831 12.4645 66.4525 12.837 66.7055 13.286C66.9589 13.7671 67.0913 14.3025 67.0913 14.8462C67.0913 15.3899 66.9589 15.9254 66.7055 16.4065C66.4525 16.8555 66.0831 17.2279 65.6361 17.4846C65.1692 17.7378 64.6465 17.8705 64.1153 17.8705C63.5842 17.8705 63.0614 17.7378 62.5945 17.4846ZM65.3381 17.0376C65.7074 16.8343 66.0114 16.5303 66.2147 16.161C66.4281 15.7556 66.5396 15.3043 66.5396 14.8462C66.5396 14.388 66.4281 13.9368 66.2147 13.5314C66.0114 13.1621 65.7074 12.8581 65.3381 12.6548C64.9681 12.4412 64.5469 12.3321 64.1197 12.3393C63.6897 12.3323 63.2658 12.4413 62.8925 12.6548C62.525 12.8604 62.2216 13.1638 62.016 13.5314C61.8026 13.9368 61.691 14.388 61.691 14.8462C61.691 15.3043 61.8026 15.7556 62.016 16.161C62.2216 16.5286 62.525 16.832 62.8925 17.0376C63.2658 17.2511 63.6897 17.3601 64.1197 17.3531C64.5469 17.3603 64.9681 17.2512 65.3381 17.0376Z" fill="#E9EEF1"/>
<path d="M77.1978 11.866L74.9363 17.8265H74.4016L72.3943 12.6548L70.3782 17.8265H69.8172L67.5557 11.866H68.108L70.089 17.1866L72.1226 11.866H72.6134L74.6295 17.1253L76.6368 11.866H77.1978Z" fill="#E9EEF1"/>
<path d="M83.1936 12.4708C83.424 12.723 83.601 13.0192 83.714 13.3416C83.827 13.6639 83.8736 14.0058 83.851 14.3466V17.8529H83.2812V14.4167C83.3175 13.8614 83.135 13.314 82.7729 12.8915C82.5851 12.7109 82.3621 12.5709 82.1177 12.4804C81.8734 12.3899 81.613 12.3509 81.3528 12.3656C81.0488 12.3501 80.7448 12.3973 80.4597 12.5044C80.1747 12.6115 79.9148 12.776 79.6961 12.9879C79.4889 13.2162 79.3287 13.4832 79.2249 13.7735C79.1211 14.0639 79.0757 14.3718 79.0913 14.6797V17.8529H78.5216V11.8923H79.065V13.1809C79.2683 12.7723 79.5888 12.4335 79.9854 12.2078C80.4268 11.961 80.9262 11.837 81.4317 11.8485C81.7522 11.8282 82.0734 11.8729 82.3762 11.9799C82.6789 12.0868 82.957 12.2538 83.1936 12.4708Z" fill="#E9EEF1"/>
<path d="M86.2007 9.35889H86.7704V17.8264H86.2007V9.35889Z" fill="#E9EEF1"/>
<path d="M89.9779 17.4848C89.531 17.228 89.1616 16.8556 88.9085 16.4066C88.6552 15.9256 88.5228 15.39 88.5228 14.8463C88.5228 14.3026 88.6552 13.7672 88.9085 13.2861C89.1616 12.8371 89.531 12.4646 89.9779 12.2079C90.444 11.9486 90.9698 11.8157 91.5031 11.8223C92.0337 11.8156 92.5567 11.9485 93.0196 12.2079C93.4684 12.4621 93.8384 12.8353 94.089 13.2861C94.3423 13.7672 94.4747 14.3026 94.4747 14.8463C94.4747 15.39 94.3423 15.9256 94.089 16.4066C93.8384 16.8575 93.4684 17.2305 93.0196 17.4848C92.5567 17.7441 92.0337 17.8772 91.5031 17.8705C90.9698 17.8771 90.444 17.7441 89.9779 17.4848ZM92.7303 17.0377C93.0984 16.8329 93.402 16.5293 93.6069 16.1612C93.8203 15.7557 93.9318 15.3045 93.9318 14.8463C93.9318 14.3882 93.8203 13.9369 93.6069 13.5315C93.402 13.1634 93.0984 12.8598 92.7303 12.6549C92.3545 12.4478 91.9323 12.3392 91.5031 12.3392C91.074 12.3392 90.6518 12.4478 90.2759 12.6549C89.9084 12.8605 89.605 13.1639 89.3994 13.5315C89.186 13.9369 89.0744 14.3882 89.0744 14.8463C89.0744 15.3045 89.186 15.7557 89.3994 16.1612C89.605 16.5287 89.9084 16.8321 90.2759 17.0377C90.6518 17.2449 91.074 17.3536 91.5031 17.3536C91.9323 17.3536 92.3545 17.2449 92.7303 17.0377Z" fill="#E9EEF1"/>
<path d="M99.9267 12.3919C100.135 12.6118 100.296 12.8726 100.398 13.1577C100.501 13.4429 100.543 13.7463 100.523 14.0486V17.8265H99.9705V16.7659C99.7841 17.1174 99.4931 17.4022 99.1378 17.581C98.7331 17.7841 98.2843 17.8836 97.8318 17.8704C97.2693 17.9022 96.7137 17.7345 96.2627 17.397C96.0883 17.2464 95.9484 17.06 95.8526 16.8505C95.7567 16.6411 95.7071 16.4134 95.7071 16.183C95.7071 15.9526 95.7567 15.7249 95.8526 15.5154C95.9484 15.3059 96.0883 15.1195 96.2627 14.9689C96.7533 14.6175 97.3532 14.4527 97.9544 14.5043H99.9968V14.0223C100.014 13.7917 99.9818 13.5601 99.9032 13.3426C99.8247 13.1252 99.7013 12.9267 99.541 12.76C99.178 12.4457 98.7052 12.2881 98.2262 12.3217C97.8394 12.3204 97.4558 12.3917 97.0954 12.5321C96.7558 12.6507 96.443 12.8355 96.1751 13.0757L95.8858 12.6636C96.2001 12.3884 96.5668 12.1797 96.9639 12.0501C97.3827 11.8986 97.8247 11.8214 98.27 11.8221C98.8747 11.7941 99.4672 11.9979 99.9267 12.3919ZM99.1728 17.0551C99.5292 16.8138 99.8018 16.4676 99.953 16.0646V14.9514H97.9194C97.4725 14.9135 97.0257 15.0246 96.6484 15.267C96.5188 15.3722 96.4156 15.5062 96.3471 15.6584C96.2786 15.8107 96.2467 15.9768 96.2539 16.1436C96.2539 16.3137 96.2936 16.4814 96.3696 16.6335C96.4457 16.7857 96.5561 16.9181 96.6922 17.0201C97.0491 17.2654 97.4785 17.3827 97.9106 17.3531C98.3514 17.3792 98.7902 17.2756 99.1728 17.0551Z" fill="#E9EEF1"/>
<path d="M108.175 9.35889V17.8264H107.614V16.4239C107.391 16.8666 107.048 17.2373 106.623 17.4933C106.183 17.7447 105.684 17.8748 105.177 17.8703C104.649 17.8771 104.129 17.744 103.669 17.4845C103.228 17.2271 102.864 16.8544 102.618 16.4064C102.356 15.9285 102.223 15.3908 102.232 14.8461C102.224 14.2987 102.357 13.7586 102.618 13.2772C102.862 12.8299 103.226 12.4595 103.669 12.2077C104.129 11.9483 104.649 11.8152 105.177 11.8221C105.679 11.8133 106.174 11.9438 106.606 12.199C107.027 12.4536 107.372 12.8169 107.605 13.2508V9.35889L108.175 9.35889ZM106.422 17.0375C106.79 16.8327 107.094 16.5291 107.298 16.1609C107.512 15.7555 107.623 15.3043 107.623 14.8461C107.623 14.388 107.512 13.9367 107.298 13.5313C107.094 13.1632 106.79 12.8596 106.422 12.6547C106.046 12.4476 105.624 12.339 105.195 12.339C104.765 12.339 104.343 12.4476 103.967 12.6547C103.6 12.8603 103.297 13.1637 103.091 13.5313C102.878 13.9367 102.766 14.388 102.766 14.8461C102.766 15.3043 102.878 15.7555 103.091 16.1609C103.297 16.5285 103.6 16.8319 103.967 17.0375C104.343 17.2447 104.765 17.3534 105.195 17.3534C105.624 17.3534 106.046 17.2447 106.422 17.0375Z" fill="#E9EEF1"/>
<path d="M114.32 17.4848C113.872 17.2305 113.502 16.8575 113.251 16.4066C112.998 15.9256 112.865 15.39 112.865 14.8463C112.865 14.3026 112.998 13.7672 113.251 13.2861C113.502 12.8353 113.872 12.4621 114.32 12.2079C114.783 11.9485 115.306 11.8156 115.837 11.8223C116.37 11.8157 116.896 11.9486 117.362 12.2079C117.809 12.4646 118.178 12.8371 118.431 13.2861C118.685 13.7672 118.817 14.3026 118.817 14.8463C118.817 15.39 118.685 15.9256 118.431 16.4066C118.178 16.8556 117.809 17.228 117.362 17.4848C116.896 17.7441 116.37 17.8771 115.837 17.8705C115.306 17.8772 114.783 17.7441 114.32 17.4848ZM117.064 17.0377C117.432 16.8321 117.735 16.5287 117.941 16.1612C118.154 15.7557 118.265 15.3045 118.265 14.8463C118.265 14.3882 118.154 13.9369 117.941 13.5315C117.735 13.1639 117.432 12.8605 117.064 12.6549C116.688 12.4478 116.266 12.3392 115.837 12.3392C115.408 12.3392 114.985 12.4478 114.61 12.6549C114.241 12.8598 113.938 13.1634 113.733 13.5315C113.52 13.9369 113.408 14.3882 113.408 14.8463C113.408 15.3045 113.52 15.7557 113.733 16.1612C113.938 16.5293 114.241 16.8329 114.61 17.0377C114.985 17.2449 115.408 17.3536 115.837 17.3536C116.266 17.3536 116.688 17.2449 117.064 17.0377Z" fill="#E9EEF1"/>
<path d="M125.259 12.4709C125.488 12.7238 125.663 13.0203 125.775 13.3426C125.886 13.665 125.931 14.0065 125.907 14.3467V17.8529H125.338V14.4168C125.358 14.1416 125.323 13.8652 125.236 13.6035C125.148 13.3418 125.01 13.0998 124.829 12.8916C124.642 12.7096 124.42 12.5689 124.175 12.4783C123.93 12.3877 123.67 12.3493 123.409 12.3657C123.107 12.3498 122.804 12.3969 122.52 12.5041C122.236 12.6112 121.978 12.7759 121.761 12.988C121.554 13.2163 121.394 13.4833 121.29 13.7736C121.186 14.064 121.141 14.3719 121.157 14.6798V17.8529H120.587V11.8923H121.13V13.181C121.328 12.7685 121.65 12.4282 122.051 12.2079C122.489 11.961 122.985 11.8369 123.488 11.8486C123.81 11.8281 124.133 11.8727 124.437 11.9797C124.741 12.0866 125.021 12.2536 125.259 12.4709Z" fill="#E9EEF1"/>
<path d="M134.148 17.4499C133.99 17.5893 133.805 17.6939 133.604 17.7566C133.385 17.8342 133.153 17.8727 132.921 17.8706C132.703 17.8853 132.485 17.8546 132.28 17.7807C132.074 17.7068 131.887 17.5912 131.728 17.4411C131.583 17.2801 131.471 17.0918 131.399 16.8871C131.326 16.6825 131.295 16.4657 131.308 16.249V12.357H130.212V11.8662H131.308V10.5688H131.877V11.8662H133.806V12.357H131.877V16.1964C131.852 16.5141 131.953 16.8291 132.158 17.0729C132.265 17.18 132.395 17.2628 132.537 17.3157C132.679 17.3686 132.831 17.3904 132.982 17.3797C133.32 17.3912 133.65 17.2719 133.902 17.0466L134.148 17.4499Z" fill="#E9EEF1"/>
<path d="M140.406 12.4707C140.633 12.7247 140.807 13.0214 140.918 13.3434C141.03 13.6655 141.076 14.0065 141.054 14.3466V17.8528H140.485V14.4167C140.504 14.1415 140.47 13.8651 140.382 13.6033C140.295 13.3416 140.157 13.0997 139.976 12.8915C139.789 12.7095 139.566 12.5687 139.322 12.4781C139.077 12.3875 138.816 12.3492 138.556 12.3656C138.253 12.3496 137.951 12.3968 137.667 12.5039C137.383 12.611 137.125 12.7758 136.908 12.9879C136.701 13.2161 136.541 13.4831 136.437 13.7735C136.333 14.0638 136.288 14.3717 136.303 14.6797V17.8528H135.734V9.38525H136.303V13.1369C136.49 12.7377 136.796 12.4067 137.18 12.1903C137.615 11.9545 138.105 11.8366 138.6 11.8484C138.927 11.8231 139.257 11.8653 139.567 11.9723C139.878 12.0794 140.163 12.249 140.406 12.4707Z" fill="#E9EEF1"/>
<path d="M148.444 14.9864H143.325C143.332 15.4218 143.453 15.8478 143.675 16.2223C143.888 16.5732 144.19 16.8607 144.552 17.055C144.944 17.2596 145.381 17.3621 145.823 17.353C146.193 17.356 146.559 17.2845 146.901 17.1426C147.224 17.0085 147.508 16.7944 147.725 16.5203L148.058 16.8973C147.794 17.2131 147.457 17.4597 147.076 17.616C146.674 17.7868 146.242 17.8734 145.805 17.8703C145.252 17.8779 144.706 17.7452 144.219 17.4845C143.767 17.2282 143.392 16.8561 143.132 16.4064C142.863 15.9308 142.727 15.3921 142.737 14.8461C142.728 14.3023 142.857 13.7652 143.114 13.2859C143.35 12.8416 143.701 12.469 144.131 12.2077C144.576 11.9548 145.079 11.822 145.591 11.822C146.102 11.822 146.605 11.9548 147.05 12.2077C147.48 12.4587 147.829 12.8266 148.058 13.2684C148.312 13.7458 148.441 14.2793 148.435 14.8199L148.444 14.9864ZM144.49 12.6022C144.159 12.7922 143.881 13.0637 143.684 13.3911C143.48 13.7417 143.36 14.1346 143.333 14.5393H147.9C147.882 14.1371 147.764 13.7458 147.558 13.3999C147.358 13.0721 147.077 12.8007 146.743 12.6109C146.402 12.4164 146.014 12.3165 145.621 12.3216C145.226 12.3164 144.837 12.413 144.49 12.6022Z" fill="#E9EEF1"/>
<path d="M60.9986 35.4716H54.1703L52.8292 38.6271H50.1995L56.3354 24.988H58.8335L64.9694 38.6271H62.3397L60.9986 35.4716ZM60.1221 33.4818L57.545 27.5213L54.9942 33.4818H60.1221Z" fill="#E9EEF1"/>
<path d="M74.9979 28.8011C75.7886 29.2385 76.4414 29.8882 76.8824 30.6769C77.3501 31.5303 77.5858 32.4914 77.5662 33.4643C77.5845 34.4399 77.3489 35.4035 76.8824 36.2606C76.444 37.0513 75.7906 37.7017 74.9979 38.1364C74.1655 38.591 73.2288 38.8207 72.2805 38.8026C71.6559 38.8322 71.0325 38.7216 70.4561 38.4789C69.8797 38.2362 69.365 37.8677 68.9497 37.4001V42.449H66.5128V28.2576H68.8269V29.625C69.2232 29.1319 69.7392 28.7487 70.3258 28.5119C70.9463 28.2599 71.6109 28.1346 72.2805 28.1437C73.2276 28.1269 74.1632 28.3533 74.9979 28.8011ZM74.2177 35.8135C74.7778 35.1555 75.0854 34.3197 75.0854 33.4556C75.0854 32.5916 74.7778 31.7556 74.2177 31.0977C73.9316 30.8048 73.5871 30.5754 73.2065 30.4244C72.8259 30.2734 72.4179 30.2041 72.0088 30.2211C71.4567 30.2152 70.9126 30.3542 70.431 30.6243C69.9588 30.8902 69.5726 31.2856 69.3178 31.7639C69.0469 32.2945 68.9057 32.8817 68.9057 33.4775C68.9057 34.0732 69.0469 34.6606 69.3178 35.1912C69.5701 35.6713 69.957 36.0672 70.431 36.3307C70.911 36.6047 71.4562 36.7441 72.0088 36.7339C72.418 36.7412 72.8242 36.663 73.2015 36.5045C73.5788 36.3461 73.9189 36.1108 74.2002 35.8135H74.2177Z" fill="#E9EEF1"/>
<path d="M88.3743 28.801C89.1627 29.2385 89.8126 29.8884 90.2501 30.6768C90.7178 31.5302 90.9535 32.4913 90.9338 33.4642C90.9522 34.4398 90.7166 35.4034 90.2501 36.2605C89.8149 37.0506 89.1644 37.701 88.3743 38.1363C87.5384 38.5901 86.5992 38.8197 85.6482 38.8025C85.0235 38.8321 84.4001 38.7215 83.8238 38.4788C83.2474 38.2361 82.7327 37.8676 82.3173 37.4V42.4489H79.8805V28.2575H82.2034V29.6249C82.5963 29.1321 83.1095 28.7488 83.6935 28.5118C84.3141 28.2604 84.9787 28.1352 85.6482 28.1436C86.5979 28.128 87.5361 28.3542 88.3743 28.801ZM87.5942 35.8134C88.1542 35.1554 88.4618 34.3196 88.4618 33.4555C88.4618 32.5914 88.1542 31.7555 87.5942 31.0976C87.3064 30.8045 86.9603 30.575 86.5783 30.424C86.1963 30.273 85.7869 30.2039 85.3765 30.221C84.8243 30.215 84.2803 30.354 83.7987 30.6242C83.3286 30.8927 82.9429 31.2875 82.6855 31.7637C82.42 32.296 82.2818 32.8826 82.2818 33.4774C82.2818 34.0721 82.42 34.6588 82.6855 35.1911C82.9406 35.6691 83.3268 36.0643 83.7987 36.3305C84.2787 36.6046 84.8238 36.744 85.3765 36.7338C85.7899 36.7437 86.2008 36.6668 86.5827 36.5083C86.9647 36.3498 87.3092 36.1131 87.5942 35.8134Z" fill="#E9EEF1"/>
<path d="M100.041 38.3731C99.1928 38.1439 98.4018 37.7408 97.7179 37.1897L98.5944 35.2174C99.2106 35.6949 99.9045 36.0627 100.646 36.3045C101.432 36.5773 102.259 36.7165 103.091 36.7164C103.878 36.7708 104.664 36.6037 105.361 36.2343C105.59 36.1054 105.78 35.9183 105.913 35.6919C106.045 35.4655 106.115 35.208 106.115 34.9458C106.119 34.7642 106.084 34.5839 106.011 34.4174C105.938 34.2509 105.83 34.1022 105.694 33.9816C105.385 33.7131 105.024 33.5102 104.634 33.3855C104.204 33.2452 103.617 33.0787 102.881 32.9034C102.025 32.7066 101.182 32.4577 100.356 32.1583C99.7178 31.9138 99.1489 31.5166 98.6996 31.0013C98.2103 30.3995 97.9633 29.6367 98.0071 28.8624C97.9985 28.1323 98.2125 27.4168 98.6207 26.8113C99.0797 26.15 99.7228 25.638 100.47 25.3388C101.432 24.9483 102.465 24.7632 103.503 24.7953C104.331 24.7964 105.155 24.8994 105.957 25.1021C106.696 25.2794 107.4 25.5754 108.044 25.9786L107.246 27.9509C106.66 27.6062 106.033 27.3381 105.379 27.1532C104.763 26.9759 104.126 26.8845 103.486 26.8815C102.707 26.8254 101.928 27.0024 101.25 27.3899C101.024 27.5324 100.839 27.7306 100.712 27.9654C100.584 28.2003 100.519 28.4639 100.523 28.731C100.518 28.9115 100.553 29.0908 100.626 29.2561C100.698 29.4213 100.807 29.5683 100.944 29.6864C101.256 29.9491 101.616 30.1486 102.004 30.2738C102.434 30.414 103.012 30.5805 103.757 30.7558C104.606 30.9436 105.441 31.1896 106.255 31.4921C106.894 31.7405 107.465 32.1371 107.921 32.6492C108.405 33.2402 108.652 33.9901 108.613 34.7529C108.618 35.4825 108.404 36.1967 108 36.804C107.53 37.4581 106.882 37.9632 106.133 38.2591C105.168 38.6528 104.132 38.8409 103.091 38.8114C102.058 38.8211 101.029 38.6733 100.041 38.3731Z" fill="#E9EEF1"/>
<path d="M117.151 38.0663C116.843 38.3115 116.488 38.4907 116.108 38.5923C115.686 38.7093 115.249 38.7682 114.811 38.7675C113.854 38.8282 112.91 38.5138 112.181 37.891C111.855 37.5395 111.604 37.1249 111.444 36.6726C111.284 36.2202 111.219 35.7399 111.252 35.2613V30.2475H109.499V28.3016H111.252V25.926H113.645V28.3016H116.432V30.2475H113.645V35.2C113.615 35.6186 113.747 36.0327 114.013 36.357C114.152 36.4974 114.319 36.6061 114.504 36.6757C114.688 36.7453 114.886 36.7741 115.082 36.7602C115.574 36.7786 116.057 36.6269 116.45 36.3307L117.151 38.0663Z" fill="#E9EEF1"/>
<path d="M120.657 38.0836C119.83 37.6502 119.143 36.9906 118.676 36.1816C118.21 35.339 117.966 34.392 117.966 33.4292C117.966 32.4664 118.21 31.5194 118.676 30.6768C119.149 29.879 119.835 29.2292 120.657 28.801C121.543 28.3568 122.52 28.1255 123.51 28.1255C124.501 28.1255 125.478 28.3568 126.364 28.801C127.187 29.2363 127.873 29.8918 128.345 30.6944C128.81 31.537 129.055 32.484 129.055 33.4468C129.055 34.4095 128.81 35.3565 128.345 36.199C127.875 37.006 127.189 37.665 126.364 38.1012C125.48 38.5508 124.502 38.7851 123.51 38.7851C122.519 38.7851 121.541 38.5508 120.657 38.1012V38.0836ZM125.724 35.7871C126.289 35.1315 126.6 34.2948 126.6 33.4292C126.6 32.5637 126.289 31.7268 125.724 31.0712C125.434 30.7783 125.086 30.5491 124.703 30.3982C124.32 30.2473 123.909 30.1779 123.497 30.1947C123.088 30.1777 122.68 30.247 122.3 30.398C121.919 30.549 121.574 30.7784 121.288 31.0712C120.728 31.7292 120.421 32.5651 120.421 33.4292C120.421 34.2933 120.728 35.1291 121.288 35.7871C121.575 36.0786 121.92 36.3072 122.3 36.4581C122.681 36.609 123.088 36.679 123.497 36.6636C123.904 36.6798 124.31 36.6127 124.689 36.4665C125.069 36.3203 125.415 36.098 125.706 35.8134L125.724 35.7871Z" fill="#E9EEF1"/>
<path d="M137.4 28.1086V30.4228C137.211 30.3895 137.021 30.3719 136.83 30.3702C136.423 30.3463 136.016 30.4071 135.634 30.5489C135.252 30.6908 134.904 30.9105 134.612 31.1941C134.042 31.8523 133.755 32.7094 133.814 33.5783V38.6273H131.378V28.2226H133.692V29.739C134.393 28.6521 135.629 28.1086 137.4 28.1086Z" fill="#E9EEF1"/>
<path d="M149.11 34.2094H140.949C141.069 34.9389 141.468 35.5929 142.063 36.0326C142.721 36.4942 143.512 36.7281 144.315 36.6988C144.84 36.7158 145.362 36.6241 145.849 36.4295C146.336 36.2349 146.778 35.9416 147.147 35.568L148.453 37.067C147.982 37.6285 147.38 38.065 146.7 38.338C145.822 38.6598 144.89 38.8031 143.957 38.7594C143.023 38.7158 142.108 38.486 141.265 38.0837C140.424 37.6565 139.724 36.9962 139.249 36.1817C138.768 35.3453 138.522 34.3941 138.539 33.4293C138.523 32.4697 138.762 31.523 139.231 30.6857C139.679 29.8837 140.345 29.2243 141.151 28.7835C141.999 28.3267 142.949 28.0943 143.912 28.1086C144.863 28.0914 145.802 28.3209 146.638 28.7748C147.429 29.2145 148.077 29.8716 148.505 30.6681C148.966 31.5333 149.198 32.5018 149.18 33.4818C149.154 33.6571 149.136 33.8939 149.11 34.2094ZM141.914 30.7032C141.369 31.1746 141.016 31.8297 140.923 32.544H146.831C146.752 31.8355 146.411 31.1821 145.876 30.712C145.314 30.261 144.615 30.0151 143.895 30.0151C143.174 30.0151 142.475 30.261 141.914 30.712V30.7032Z" fill="#E9EEF1"/>
</svg>
