<svg
          width="774"
          height="1360"
          viewBox="0 0 774 1360"
          fill="none"
          xmlns="http://www.w3.org/2000/svg"
        >
          <path
            d="M1344.99 112.018V896.661C1345.03 817.983 1324.34 740.684 1285.01 672.54C1245.68 604.397 1189.1 547.813 1120.96 508.483V336.248C1120.96 321.528 1118.06 306.952 1112.42 293.353C1106.79 279.754 1098.53 267.399 1088.12 256.994C1077.7 246.588 1065.34 238.336 1051.74 232.708C1038.14 227.081 1023.56 224.189 1008.84 224.198H672.496C570.039 224.316 470.711 259.514 391.041 323.935C311.37 388.356 256.16 478.116 234.598 578.278C213.035 678.441 226.421 782.967 272.526 874.464C318.632 965.962 394.677 1038.91 488.01 1081.18C526.723 1166.7 591.235 1237.95 672.496 1284.94C710.961 1307.33 752.596 1323.77 795.985 1333.68C829.03 1341.26 862.825 1345.07 896.727 1345.06H672.496C301.151 1345.06 0.000244141 1044 0.000244141 672.594C0.000244141 301.184 301.151 0 672.496 0H1232.94C1262.65 -1.24959e-06 1291.15 11.8008 1312.16 32.8073C1333.17 53.8137 1344.98 82.3058 1344.99 112.018Z"
            fill="#0141CB"
          />
          <path
            d="M1415.78 864.407V1236.05C1415.77 1268.9 1402.72 1300.4 1379.49 1323.62C1356.26 1346.85 1324.75 1359.9 1291.9 1359.9H920.332C882.861 1359.91 845.509 1355.7 808.986 1347.32C761.029 1336.36 715.011 1318.2 672.497 1293.45C562.945 1229.56 482.047 1126.11 446.451 1004.39C410.856 882.667 423.271 751.931 481.142 639.084C539.012 526.237 637.936 439.865 757.556 397.741C877.176 355.617 1008.39 360.945 1124.2 412.63C1139.25 419.416 1153.93 427.005 1168.17 435.366C1243.55 478.825 1306.15 541.381 1349.65 616.734C1393.16 692.086 1416.05 777.574 1416 864.586L1415.78 864.407ZM1167.95 864.407C1167.95 815.39 1153.41 767.473 1126.18 726.717C1098.95 685.961 1060.24 654.195 1014.96 635.438C969.672 616.68 919.841 611.772 871.766 621.334C823.691 630.897 779.531 654.501 744.871 689.161C710.211 723.821 686.607 767.981 677.044 816.056C667.481 864.132 672.389 913.963 691.147 959.249C709.905 1004.53 741.671 1043.24 782.427 1070.47C823.183 1097.71 871.099 1112.24 920.116 1112.24C952.757 1112.55 985.133 1106.35 1015.35 1094C1045.57 1081.66 1073.03 1063.42 1096.12 1040.35C1119.21 1017.28 1137.48 989.835 1149.85 959.626C1162.22 929.418 1168.44 897.048 1168.17 864.407H1167.95Z"
            fill="#276BFE"
          />
          <path
            d="M1344.99 112.018V896.661C1345.03 817.983 1324.34 740.684 1285.01 672.54C1245.68 604.397 1189.1 547.813 1120.96 508.483V336.248C1120.96 321.528 1118.06 306.952 1112.42 293.353C1106.79 279.754 1098.53 267.399 1088.12 256.994C1077.7 246.588 1065.34 238.336 1051.74 232.708C1038.14 227.081 1023.56 224.189 1008.84 224.198H672.496C570.039 224.316 470.711 259.514 391.041 323.935C311.37 388.356 256.16 478.116 234.598 578.278C213.035 678.441 226.421 782.967 272.526 874.464C318.632 965.962 394.677 1038.91 488.01 1081.18C526.723 1166.7 591.235 1237.95 672.496 1284.94C710.961 1307.33 752.596 1323.77 795.985 1333.68C829.03 1341.26 862.825 1345.07 896.727 1345.06H672.496C301.151 1345.06 0.000244141 1044 0.000244141 672.594C0.000244141 301.184 301.151 0 672.496 0H1232.94C1262.65 -1.24959e-06 1291.15 11.8008 1312.16 32.8073C1333.17 53.8137 1344.98 82.3058 1344.99 112.018Z"
            fill="#0141CB"
          />
          <path
            d="M1415.78 864.407V1236.05C1415.77 1268.9 1402.72 1300.4 1379.49 1323.62C1356.26 1346.85 1324.75 1359.9 1291.9 1359.9H920.332C882.861 1359.91 845.509 1355.7 808.986 1347.32C761.029 1336.36 715.011 1318.2 672.497 1293.45C562.945 1229.56 482.047 1126.11 446.451 1004.39C410.856 882.667 423.271 751.931 481.142 639.084C539.012 526.237 637.936 439.865 757.556 397.741C877.176 355.617 1008.39 360.945 1124.2 412.63C1139.25 419.416 1153.93 427.005 1168.17 435.366C1243.55 478.825 1306.15 541.381 1349.65 616.734C1393.16 692.086 1416.05 777.574 1416 864.586L1415.78 864.407ZM1167.95 864.407C1167.95 815.39 1153.41 767.473 1126.18 726.717C1098.95 685.961 1060.24 654.195 1014.96 635.438C969.672 616.68 919.841 611.772 871.766 621.334C823.691 630.897 779.531 654.501 744.871 689.161C710.211 723.821 686.607 767.981 677.044 816.056C667.481 864.132 672.389 913.963 691.147 959.249C709.905 1004.53 741.671 1043.24 782.427 1070.47C823.183 1097.71 871.099 1112.24 920.116 1112.24C952.757 1112.55 985.133 1106.35 1015.35 1094C1045.57 1081.66 1073.03 1063.42 1096.12 1040.35C1119.21 1017.28 1137.48 989.835 1149.85 959.626C1162.22 929.418 1168.44 897.048 1168.17 864.407H1167.95Z"
            fill="#276BFE"
          />
        </svg>