<svg width="168" height="52" viewBox="0 0 168 52" fill="none" xmlns="http://www.w3.org/2000/svg">
<path d="M6.49525 1.36365L161.505 1.36365C164.54 1.36365 167 3.82396 167 6.8589V44.9626C167 47.9976 164.54 50.4579 161.505 50.4579L6.49525 50.4579C3.46031 50.4579 1 47.9976 1 44.9626L1 6.8589C1 3.82396 3.46031 1.36365 6.49525 1.36365Z" stroke="#E9EEF1" stroke-width="2"/>
<path d="M52.2424 14.9848H47.6581L46.6413 17.2375H46.0189L49.6917 9.25211H50.2702L53.9429 17.2375H53.3118L52.2424 14.9848ZM52.0321 14.4939L49.9283 9.89197L47.8421 14.4939H52.0321Z" fill="#E9EEF1"/>
<path d="M59.6487 11.2768L56.9577 17.2373H56.3704L53.6969 11.2768H54.293L56.6684 16.6062L59.0614 11.2768L59.6487 11.2768Z" fill="#E9EEF1"/>
<path d="M64.4173 11.8029C64.6247 12.0233 64.784 12.2843 64.8851 12.5695C64.9862 12.8547 65.0269 13.1579 65.0046 13.4596V17.2375H64.4612V16.1769C64.2699 16.5247 63.9802 16.8082 63.6284 16.9921C63.2202 17.1941 62.7689 17.2935 62.3136 17.2814C61.7514 17.3117 61.1962 17.1442 60.7446 16.808C60.559 16.6634 60.4105 16.4767 60.3114 16.2633C60.2123 16.0499 60.1655 15.8159 60.1748 15.5808C60.1677 15.3541 60.2112 15.1288 60.3022 14.921C60.3931 14.7133 60.5293 14.5284 60.7007 14.3799C61.192 14.0299 61.7914 13.8653 62.3925 13.9153H64.4349V13.4333C64.4507 13.2035 64.4192 12.9729 64.3423 12.7558C64.2654 12.5387 64.1447 12.3396 63.9878 12.171C63.6238 11.8584 63.1517 11.701 62.673 11.7327C62.2833 11.7305 61.8967 11.8018 61.5335 11.9431C61.1948 12.0638 60.8823 12.2484 60.6131 12.4867L60.3326 12.0746C60.6436 11.7994 61.0075 11.5907 61.402 11.4611C61.8239 11.3103 62.2687 11.2332 62.7168 11.2332C63.3363 11.1936 63.9467 11.3981 64.4173 11.8029ZM63.6547 16.4661C64.0136 16.2274 64.2869 15.8804 64.4349 15.4756V14.3624H62.41C61.963 14.3232 61.5158 14.4344 61.139 14.678C61.0094 14.7832 60.9063 14.9172 60.8378 15.0695C60.7693 15.2217 60.7373 15.3878 60.7446 15.5546C60.7429 15.7241 60.7808 15.8915 60.8554 16.0437C60.93 16.1959 61.0391 16.3286 61.1741 16.4312C61.531 16.6764 61.9604 16.7937 62.3925 16.7641C62.8335 16.7923 63.2729 16.6885 63.6547 16.4661Z" fill="#E9EEF1"/>
<path d="M67.3102 9.69868C67.266 9.65698 67.2307 9.60667 67.2066 9.55091C67.1825 9.49515 67.17 9.43511 67.1699 9.37436C67.1717 9.24934 67.222 9.12991 67.3102 9.04126C67.4009 8.95748 67.5198 8.91093 67.6432 8.91093C67.7667 8.91093 67.8856 8.95748 67.9763 9.04126C68.0194 9.08339 68.0532 9.13398 68.0758 9.18978C68.0985 9.24558 68.1094 9.30539 68.1078 9.36558C68.1056 9.45698 68.0769 9.54574 68.0253 9.62121C67.9737 9.69667 67.9014 9.75558 67.817 9.7908C67.7326 9.82603 67.6399 9.83605 67.55 9.81969C67.46 9.80334 67.3767 9.76134 67.3102 9.69868ZM67.354 11.2765H67.9237V17.237H67.354V11.2765Z" fill="#E9EEF1"/>
<path d="M70.3343 8.76987H70.9041V17.2374H70.3343V8.76987Z" fill="#E9EEF1"/>
<path d="M77.0143 11.8032C77.2228 12.0231 77.3835 12.2839 77.4861 12.569C77.5887 12.8542 77.631 13.1576 77.6104 13.4599V17.2378H77.0669V16.1772C76.8756 16.525 76.586 16.8085 76.2342 16.9923C75.826 17.1944 75.3747 17.2938 74.9194 17.2817C74.357 17.3135 73.8013 17.1458 73.3503 16.8083C73.1637 16.6641 73.0139 16.4778 72.9133 16.2644C72.8127 16.0511 72.7642 15.8168 72.7718 15.5811C72.7664 15.3538 72.8115 15.1282 72.904 14.9205C72.9965 14.7128 73.134 14.5283 73.3065 14.3802C73.7978 14.0302 74.3972 13.8656 74.9983 13.9156H77.0406V13.4336C77.0564 13.2038 77.0249 12.9732 76.948 12.7561C76.8711 12.5389 76.7505 12.3399 76.5936 12.1713C76.226 11.859 75.7513 11.7018 75.27 11.733C74.8832 11.7317 74.4996 11.803 74.1392 11.9434C73.8161 12.069 73.5189 12.2533 73.2627 12.487L72.9822 12.0749C73.292 11.7981 73.6562 11.5891 74.0516 11.4613C74.4734 11.3099 74.9182 11.2328 75.3664 11.2334C75.9685 11.2049 76.5584 11.4089 77.0143 11.8032ZM76.2605 16.4664C76.6169 16.2251 76.8895 15.8789 77.0406 15.4759V14.3627H75.007C74.5603 14.3262 74.1138 14.4371 73.736 14.6783C73.6064 14.7835 73.5033 14.9175 73.4348 15.0697C73.3663 15.222 73.3343 15.3881 73.3416 15.5549C73.3416 15.725 73.3812 15.8927 73.4573 16.0448C73.5333 16.197 73.6438 16.3294 73.7798 16.4314C74.1368 16.6767 74.5662 16.794 74.9983 16.7644C75.4391 16.7904 75.8779 16.6869 76.2605 16.4664Z" fill="#E9EEF1"/>
<path d="M84.4728 11.6187C84.916 11.8705 85.2802 12.2409 85.5247 12.6881C85.7854 13.1695 85.9182 13.7097 85.9104 14.2571C85.9191 14.8018 85.7862 15.3394 85.5247 15.8174C85.2782 16.2654 84.9147 16.6381 84.4728 16.8955C84.0127 17.1538 83.4928 17.2868 82.9652 17.2813C82.4569 17.287 81.9568 17.1535 81.5189 16.8955C81.0917 16.647 80.7472 16.2781 80.5284 15.8349V17.2374H79.9761V8.76987H80.5459V12.6355C80.7758 12.2071 81.1183 11.8495 81.5364 11.6012C81.9716 11.354 82.4647 11.2269 82.9652 11.233C83.4928 11.2275 84.0127 11.3604 84.4728 11.6187ZM84.166 16.4485C84.5336 16.2429 84.837 15.9395 85.0426 15.5719C85.256 15.1665 85.3676 14.7152 85.3676 14.2571C85.3676 13.7989 85.256 13.3477 85.0426 12.9423C84.837 12.5747 84.5336 12.2713 84.166 12.0657C83.7892 11.853 83.3627 11.7442 82.9301 11.7502C82.5001 11.7432 82.0762 11.8522 81.7029 12.0657C81.3328 12.2678 81.0285 12.5721 80.8264 12.9423C80.613 13.3477 80.5014 13.7989 80.5014 14.2571C80.5014 14.7152 80.613 15.1665 80.8264 15.5719C81.0285 15.9421 81.3328 16.2463 81.7029 16.4485C82.0762 16.662 82.5001 16.771 82.9301 16.764C83.3568 16.7669 83.7769 16.6582 84.1485 16.4485H84.166Z" fill="#E9EEF1"/>
<path d="M87.6547 8.76987H88.2245V17.2374H87.6547V8.76987Z" fill="#E9EEF1"/>
<path d="M95.6671 14.3972H90.5481C90.5514 14.8333 90.6726 15.2603 90.8987 15.6332C91.1077 15.9869 91.4113 16.2752 91.7752 16.4659C92.1671 16.6705 92.6043 16.7729 93.0463 16.7639C93.4161 16.7669 93.7828 16.6954 94.1244 16.5535C94.4488 16.4218 94.733 16.2072 94.9484 15.9312L95.2814 16.3082C95.0227 16.6257 94.6881 16.8729 94.3085 17.0269C93.8515 17.215 93.3588 17.3007 92.8651 17.278C92.3714 17.2553 91.8887 17.1247 91.4509 16.8954C90.9973 16.6415 90.6215 16.2688 90.364 15.8172C90.0956 15.3417 89.9594 14.8029 89.9695 14.2569C89.9612 13.7144 90.0878 13.1784 90.3377 12.6968C90.5745 12.2503 90.9292 11.8773 91.3633 11.6185C91.8065 11.3656 92.308 11.2327 92.8183 11.2327C93.3287 11.2327 93.8302 11.3656 94.2734 11.6185C94.7042 11.8709 95.0562 12.2382 95.2902 12.6792C95.5412 13.1573 95.6678 13.6909 95.6584 14.2307L95.6671 14.3972ZM91.7051 12.013C91.3743 12.201 91.0991 12.4732 90.9075 12.8019C90.6999 13.1509 90.5797 13.5448 90.5568 13.9502H95.1149C95.102 13.5579 94.9899 13.1753 94.7891 12.8381C94.5883 12.5009 94.3053 12.22 93.9666 12.0218C93.6223 11.8261 93.2319 11.7262 92.8359 11.7325C92.4411 11.7272 92.0517 11.8239 91.7051 12.013Z" fill="#E9EEF1"/>
<path d="M101.181 16.8953C100.734 16.6386 100.365 16.2661 100.111 15.8171C99.8582 15.3361 99.7258 14.8005 99.7258 14.2568C99.7258 13.7131 99.8582 13.1777 100.111 12.6967C100.365 12.2477 100.734 11.8751 101.181 11.6184C101.648 11.3652 102.171 11.2327 102.702 11.2327C103.233 11.2327 103.756 11.3652 104.223 11.6184C104.669 11.8751 105.039 12.2477 105.292 12.6967C105.545 13.1777 105.678 13.7131 105.678 14.2568C105.678 14.8005 105.545 15.3361 105.292 15.8171C105.039 16.2661 104.669 16.6386 104.223 16.8953C103.756 17.1484 103.233 17.2811 102.702 17.2811C102.171 17.2811 101.648 17.1484 101.181 16.8953ZM103.925 16.4482C104.294 16.2449 104.598 15.9409 104.801 15.5717C105.014 15.1663 105.126 14.715 105.126 14.2568C105.126 13.7987 105.014 13.3474 104.801 12.942C104.598 12.5727 104.294 12.2688 103.925 12.0655C103.55 11.8582 103.13 11.7496 102.702 11.7496C102.274 11.7496 101.853 11.8582 101.479 12.0655C101.11 12.2688 100.806 12.5727 100.602 12.942C100.389 13.3474 100.277 13.7987 100.277 14.2568C100.277 14.715 100.389 15.1663 100.602 15.5717C100.806 15.9409 101.11 16.2449 101.479 16.4482C101.853 16.6554 102.274 16.7642 102.702 16.7642C103.13 16.7642 103.55 16.6554 103.925 16.4482Z" fill="#E9EEF1"/>
<path d="M112.121 11.8821C112.349 12.135 112.525 12.4315 112.636 12.7538C112.748 13.0762 112.793 13.4177 112.769 13.7579V17.2641H112.199V13.828C112.238 13.2739 112.059 12.7266 111.7 12.3028C111.512 12.1222 111.289 11.9822 111.045 11.8917C110.8 11.8012 110.54 11.7622 110.28 11.7769C109.976 11.7614 109.672 11.8086 109.387 11.9157C109.102 12.0228 108.842 12.1873 108.623 12.3992C108.416 12.6275 108.256 12.8945 108.152 13.1848C108.048 13.4752 108.003 13.7831 108.018 14.091V17.2641H107.449V11.3035H107.992V12.5922C108.195 12.1836 108.516 11.8448 108.912 11.6191C109.353 11.3711 109.853 11.247 110.359 11.2598C110.679 11.2395 111 11.2842 111.303 11.3912C111.606 11.4981 111.884 11.6651 112.121 11.8821Z" fill="#E9EEF1"/>
<path d="M121.008 16.8608C120.851 17.0003 120.665 17.1049 120.465 17.1676C120.248 17.2452 120.02 17.2838 119.79 17.2816C119.571 17.2964 119.351 17.2659 119.144 17.192C118.938 17.1181 118.749 17.0024 118.589 16.8521C118.443 16.6911 118.331 16.5028 118.259 16.2981C118.187 16.0935 118.156 15.8766 118.168 15.66V11.768H117.072V11.2772H118.168V9.97983H118.738V11.2772H120.631V11.768H118.738V15.6073C118.717 15.9245 118.817 16.2378 119.018 16.4839C119.126 16.5905 119.255 16.673 119.397 16.7259C119.539 16.7788 119.691 16.8008 119.842 16.7907C120.183 16.8018 120.515 16.6827 120.771 16.4576L121.008 16.8608Z" fill="#E9EEF1"/>
<path d="M127.266 11.8814C127.495 12.1343 127.671 12.4308 127.782 12.7532C127.894 13.0755 127.939 13.417 127.915 13.7573V17.2635H127.345V13.8274C127.365 13.5522 127.331 13.2758 127.243 13.014C127.156 12.7523 127.018 12.5104 126.837 12.3022C126.65 12.1202 126.427 11.9794 126.183 11.8888C125.938 11.7982 125.677 11.7599 125.417 11.7763C125.114 11.7614 124.812 11.809 124.528 11.9161C124.245 12.0232 123.986 12.1873 123.769 12.3986C123.562 12.6268 123.402 12.8939 123.298 13.1842C123.194 13.4745 123.149 13.7824 123.164 14.0904V17.2635H122.594V8.79596H123.164V12.5476C123.351 12.1484 123.657 11.8174 124.041 11.601C124.479 11.3641 124.972 11.2462 125.47 11.2591C125.796 11.234 126.124 11.2763 126.433 11.3834C126.742 11.4904 127.026 11.66 127.266 11.8814Z" fill="#E9EEF1"/>
<path d="M135.314 14.3972H130.186C130.192 14.834 130.316 15.261 130.545 15.6332C130.754 15.9868 131.058 16.2752 131.422 16.4658C131.814 16.6704 132.251 16.7729 132.693 16.7638C133.063 16.7669 133.429 16.6953 133.771 16.5535C134.095 16.4218 134.379 16.2072 134.595 15.9312L134.928 16.3081C134.665 16.6218 134.332 16.8681 133.955 17.0268C133.498 17.215 133.005 17.3007 132.512 17.278C132.018 17.2553 131.535 17.1246 131.097 16.8953C130.641 16.6421 130.262 16.2694 130.002 15.8172C129.74 15.3393 129.607 14.8016 129.616 14.2569C129.608 13.7144 129.734 13.1783 129.984 12.6967C130.22 12.2524 130.571 11.8799 131.001 11.6185C131.445 11.3603 131.951 11.227 132.465 11.2328C132.976 11.2273 133.479 11.3606 133.92 11.6185C134.349 11.8734 134.7 12.24 134.937 12.6792C135.188 13.1573 135.314 13.6908 135.305 14.2307L135.314 14.3972ZM131.352 12.013C131.02 12.203 130.742 12.4746 130.545 12.8019C130.34 13.1516 130.223 13.5454 130.203 13.9501H134.761C134.743 13.548 134.626 13.1566 134.419 12.8107C134.22 12.4768 133.935 12.2014 133.595 12.0121C133.255 11.8229 132.871 11.7264 132.482 11.7324C132.088 11.7272 131.698 11.8239 131.352 12.013Z" fill="#E9EEF1"/>
<path d="M55.0554 31.2185H57.3958V36.5391C56.6817 37.1001 55.8706 37.525 55.0029 37.7926C54.09 38.0824 53.1381 38.2302 52.1804 38.2309C50.9019 38.252 49.6387 37.9505 48.5076 37.3543C47.4391 36.793 46.547 35.9464 45.9305 34.9087C45.3277 33.8385 45.0109 32.6309 45.0109 31.4025C45.0109 30.1742 45.3277 28.9665 45.9305 27.8963C46.548 26.8563 47.4435 26.0092 48.5164 25.4507C49.6555 24.8506 50.9281 24.549 52.2154 24.5741C53.2589 24.5624 54.2948 24.753 55.2658 25.1352C56.1511 25.4826 56.9413 26.0354 57.5711 26.748L56.0109 28.2732C55.5341 27.7808 54.9614 27.3914 54.3282 27.1291C53.6949 26.8668 53.0147 26.7371 52.3294 26.748C51.4597 26.7331 50.6004 26.9381 49.8312 27.3441C49.1003 27.7171 48.4918 28.2921 48.0781 29.0008C47.6699 29.7418 47.4558 30.5741 47.4558 31.4201C47.4558 32.2661 47.6699 33.0983 48.0781 33.8394C48.496 34.5491 49.103 35.1287 49.8312 35.5135C50.5922 35.9254 51.4467 36.1338 52.3118 36.1184C53.271 36.1391 54.2182 35.903 55.0554 35.4346V31.2185Z" fill="#E9EEF1"/>
<path d="M62.2178 37.5116C61.4136 37.0852 60.7454 36.4412 60.2894 35.6533C59.817 34.8329 59.5747 33.9002 59.5882 32.9536C59.5743 32.0124 59.8168 31.0852 60.2894 30.2713C60.7459 29.486 61.4142 28.845 62.2178 28.4217C63.0832 27.9835 64.0397 27.7551 65.0097 27.7551C65.9797 27.7551 66.9361 27.9835 67.8015 28.4217C68.6052 28.845 69.2734 29.486 69.7299 30.2713C70.2026 31.0852 70.445 32.0124 70.4311 32.9536C70.4447 33.9002 70.2024 34.8329 69.7299 35.6533C69.274 36.4412 68.6058 37.0852 67.8015 37.5116C66.9361 37.9498 65.9797 38.1782 65.0097 38.1782C64.0397 38.1782 63.0832 37.9498 62.2178 37.5116ZM67.1704 35.2589C67.7277 34.6202 68.0348 33.8012 68.0348 32.9536C68.0348 32.1059 67.7277 31.2869 67.1704 30.6482C66.8876 30.3607 66.5487 30.1344 66.1747 29.9836C65.8007 29.8328 65.3996 29.7607 64.9965 29.7717C64.5959 29.7599 64.1973 29.8318 63.826 29.9827C63.4547 30.1336 63.119 30.3603 62.8402 30.6482C62.2914 31.2909 61.9898 32.1084 61.9898 32.9536C61.9898 33.7987 62.2914 34.6162 62.8402 35.2589C63.1177 35.5486 63.4532 35.7764 63.8247 35.9274C64.1963 36.0785 64.5956 36.1494 64.9965 36.1354C65.4025 36.1441 65.8057 36.0673 66.1802 35.9103C66.5546 35.7533 66.892 35.5194 67.1704 35.2238V35.2589Z" fill="#E9EEF1"/>
<path d="M74.5066 37.5122C73.7019 37.0833 73.0315 36.4402 72.5695 35.6539C72.1001 34.8326 71.8608 33.9 71.877 32.9542C71.8601 32.0138 72.0994 31.0865 72.5695 30.2719C73.0316 29.488 73.7022 28.8478 74.5066 28.4224C75.3699 27.9822 76.3251 27.7526 77.2941 27.7526C78.2631 27.7526 79.2183 27.9822 80.0815 28.4224C80.8876 28.8455 81.5587 29.4863 82.0187 30.2719C82.4887 31.0865 82.7281 32.0138 82.7112 32.9542C82.7273 33.9 82.4881 34.8326 82.0187 35.6539C81.5593 36.4422 80.8882 37.0859 80.0815 37.5122C79.2183 37.9524 78.2631 38.1819 77.2941 38.1819C76.3251 38.1819 75.3699 37.9524 74.5066 37.5122ZM79.4592 35.2595C80.0165 34.6208 80.3236 33.8018 80.3236 32.9542C80.3236 32.1065 80.0165 31.2875 79.4592 30.6488C78.8772 30.086 78.0993 29.7713 77.2897 29.7713C76.4801 29.7713 75.7022 30.086 75.1202 30.6488C74.5763 31.2939 74.278 32.1104 74.278 32.9542C74.278 33.7979 74.5763 34.6145 75.1202 35.2595C75.7022 35.8224 76.4801 36.137 77.2897 36.137C78.0993 36.137 78.8772 35.8224 79.4592 35.2595Z" fill="#E9EEF1"/>
<path d="M95.0971 27.8704V36.4957C95.0971 40.0778 93.268 41.8689 89.6099 41.8689C88.6712 41.8743 87.7362 41.7505 86.8312 41.5008C86.0388 41.2984 85.298 40.931 84.6574 40.4227L85.7268 38.6696C86.2289 39.0631 86.7995 39.3603 87.4098 39.5461C88.0777 39.7646 88.7757 39.877 89.4784 39.8792C90.3648 39.9558 91.2459 39.682 91.9328 39.1165C92.2145 38.8032 92.4291 38.4354 92.5633 38.0359C92.6975 37.6364 92.7484 37.2137 92.7129 36.7938V36.2591C92.3046 36.7062 91.7973 37.0514 91.2315 37.267C90.6158 37.5007 89.9616 37.6167 89.3031 37.6089C88.3894 37.6237 87.4862 37.413 86.6735 36.9953C85.9085 36.5939 85.271 35.9867 84.8327 35.2422C84.3719 34.4629 84.1381 33.5703 84.1578 32.6651C84.1381 31.7655 84.372 30.8786 84.8327 30.1057C85.2695 29.3601 85.9074 28.7525 86.6735 28.3526C87.4883 27.9417 88.3906 27.7341 89.3031 27.7477C89.9889 27.7393 90.6701 27.8613 91.3104 28.1071C91.9011 28.3412 92.4228 28.7212 92.8268 29.2116V27.8616L95.0971 27.8704ZM91.8889 34.7601C92.1775 34.491 92.405 34.1633 92.5562 33.7989C92.7074 33.4345 92.7788 33.042 92.7655 32.6477C92.7812 32.2595 92.7108 31.8727 92.5593 31.515C92.4077 31.1573 92.1788 30.8376 91.8889 30.5789C91.2609 30.061 90.4722 29.7777 89.6581 29.7777C88.844 29.7777 88.0553 30.061 87.4273 30.5789C87.1374 30.8376 86.9085 31.1573 86.757 31.515C86.6054 31.8727 86.535 32.2595 86.5507 32.6477C86.5374 33.042 86.6088 33.4345 86.76 33.7989C86.9112 34.1633 87.1387 34.491 87.4273 34.7601C88.0553 35.2781 88.844 35.5613 89.6581 35.5613C90.4722 35.5613 91.2609 35.2781 91.8889 34.7601Z" fill="#E9EEF1"/>
<path d="M98.2181 23.9077H100.602V38.0378H98.2181V23.9077Z" fill="#E9EEF1"/>
<path d="M113.251 33.7167H105.265C105.391 34.4206 105.783 35.0488 106.361 35.4698C107.003 35.9231 107.776 36.1539 108.561 36.1272C109.073 36.1448 109.583 36.0556 110.058 35.8654C110.533 35.6753 110.964 35.3883 111.322 35.0228L112.602 36.4953C112.131 37.0484 111.528 37.4735 110.849 37.7313C110.097 38.0216 109.297 38.1644 108.491 38.152C107.467 38.1712 106.454 37.9427 105.537 37.4858C104.717 37.0657 104.033 36.4213 103.565 35.6275C103.116 34.8032 102.881 33.8796 102.881 32.941C102.881 32.0024 103.116 31.0786 103.565 30.2543C104.001 29.4692 104.651 28.8246 105.441 28.396C106.268 27.9436 107.198 27.714 108.14 27.7298C109.059 27.7186 109.965 27.9451 110.77 28.3872C111.546 28.8141 112.183 29.4566 112.602 30.2368C113.054 31.0826 113.28 32.0304 113.259 32.9891C113.286 33.182 113.277 33.4099 113.251 33.7167ZM106.238 30.3332C105.706 30.7959 105.362 31.4388 105.274 32.1389H111.042C110.969 31.437 110.631 30.7893 110.096 30.3283C109.562 29.8673 108.872 29.6277 108.167 29.6583C107.454 29.633 106.757 29.8736 106.212 30.3332H106.238Z" fill="#E9EEF1"/>
<path d="M129.563 25.2751C130.369 25.6126 131.056 26.1834 131.536 26.9142C131.983 27.6819 132.219 28.5546 132.219 29.4431C132.219 30.3316 131.983 31.2043 131.536 31.9719C131.06 32.7086 130.373 33.2833 129.563 33.6199C128.607 34.0217 127.576 34.2158 126.539 34.1895H123.533V38.0376H121.061V24.7053H126.548C127.582 24.6847 128.608 24.8787 129.563 25.2751ZM128.888 31.4109C129.151 31.156 129.36 30.8508 129.503 30.5135C129.646 30.1762 129.719 29.8137 129.719 29.4475C129.719 29.0812 129.646 28.7187 129.503 28.3814C129.36 28.0441 129.151 27.739 128.888 27.484C128.17 26.9801 127.3 26.7387 126.425 26.8003H123.533V32.0596H126.425C127.296 32.1314 128.166 31.9024 128.888 31.4109Z" fill="#E9EEF1"/>
<path d="M134.656 23.9077H137.067V38.0378H134.682L134.656 23.9077Z" fill="#E9EEF1"/>
<path d="M147.488 28.8337C147.907 29.2578 148.23 29.7667 148.436 30.3262C148.641 30.8856 148.725 31.4826 148.68 32.077V38.0375H146.428V36.8017C146.125 37.2587 145.691 37.6132 145.183 37.8184C144.563 38.0714 143.897 38.1938 143.228 38.1778C142.541 38.1932 141.859 38.0586 141.23 37.7834C140.695 37.5532 140.236 37.1764 139.906 36.6965C139.524 36.1084 139.37 35.4014 139.471 34.7076C139.573 34.0139 139.924 33.381 140.458 32.9273C141.398 32.2805 142.529 31.9715 143.666 32.0507H146.296V31.9016C146.315 31.5983 146.268 31.2944 146.157 31.0113C146.047 30.7282 145.876 30.4726 145.656 30.2625C145.117 29.8454 144.443 29.6424 143.763 29.6927C143.192 29.6929 142.624 29.7817 142.08 29.9557C141.57 30.1142 141.094 30.3669 140.677 30.7008L139.739 28.9477C140.318 28.5194 140.972 28.2043 141.668 28.0186C142.443 27.7969 143.246 27.6877 144.052 27.6943C145.3 27.6286 146.527 28.0354 147.488 28.8337ZM145.314 36.0303C145.77 35.7665 146.117 35.3505 146.296 34.8556V33.6811H143.842C142.466 33.6811 141.782 34.1281 141.782 35.031C141.77 35.2414 141.814 35.4511 141.909 35.639C142.005 35.8268 142.148 35.9861 142.325 36.1004C142.748 36.3795 143.249 36.5147 143.754 36.486C144.306 36.4767 144.844 36.3193 145.314 36.0303Z" fill="#E9EEF1"/>
<path d="M161.058 27.8695L156.299 38.8615C155.991 39.7772 155.428 40.5861 154.677 41.1931C153.999 41.6556 153.192 41.8917 152.372 41.868C151.859 41.8685 151.35 41.7857 150.864 41.6226C150.416 41.4788 150.002 41.2462 149.646 40.9389L150.601 39.1858C150.837 39.403 151.11 39.5752 151.407 39.6942C151.707 39.821 152.029 39.8865 152.354 39.887C152.726 39.9037 153.092 39.7888 153.388 39.5627C153.725 39.2675 153.984 38.8943 154.142 38.4757L154.318 38.0813L149.873 27.8695H152.354L155.553 35.3903L158.77 27.8695L161.058 27.8695Z" fill="#E9EEF1"/>
<path d="M40.4269 25.2577L34.0194 21.5587L28.76 26.6514L33.5723 31.2971L40.4269 27.3439C40.6098 27.2383 40.7613 27.0862 40.866 26.9029C40.9707 26.7197 41.0249 26.5118 41.023 26.3007C41.0267 26.0893 40.9733 25.8808 40.8684 25.6972C40.7635 25.5136 40.611 25.3618 40.4269 25.2577Z" fill="#E9EEF1"/>
<path d="M32.9407 20.9368L25.8932 16.8696L10.4571 8.96313L27.8917 25.8105L32.9407 20.9368Z" fill="#E9EEF1"/>
<path d="M10.7113 44.0941L25.9195 35.7231L32.4848 31.9276L27.8917 27.4922L10.7113 44.0941Z" fill="#E9EEF1"/>
<path d="M9.42248 9.63803L9.41371 43.6746L27.0236 26.6519L9.42248 9.63803Z" fill="#E9EEF1"/>
</svg>
