<svg width="168" height="53" viewBox="0 0 168 53" fill="none" xmlns="http://www.w3.org/2000/svg">
<path d="M161.505 0.952881L6.49525 0.952881C2.90802 0.952881 0 3.8609 0 7.44813L0 45.5519C0 49.1391 2.90802 52.0471 6.49525 52.0471L161.505 52.0471C165.092 52.0471 168 49.1391 168 45.5519V7.44813C168 3.8609 165.092 0.952881 161.505 0.952881Z" fill="#276BFE"/>
<path d="M52.2429 15.574H47.6586L46.6418 17.8267H46.0194L49.6922 9.84131H50.2707L53.9434 17.8267H53.3123L52.2429 15.574ZM52.0326 15.0831L49.9288 10.4812L47.8426 15.0831H52.0326Z" fill="#E9EEF1"/>
<path d="M59.6493 11.866L56.9583 17.8265H56.371L53.6975 11.866H54.2936L56.669 17.1954L59.062 11.866L59.6493 11.866Z" fill="#E9EEF1"/>
<path d="M64.4179 12.392C64.6252 12.6123 64.7845 12.8734 64.8856 13.1586C64.9867 13.4438 65.0275 13.7469 65.0052 14.0487V17.8266H64.4617V16.766C64.2704 17.1138 63.9807 17.3973 63.629 17.5811C63.2208 17.7832 62.7694 17.8825 62.3141 17.8704C61.7519 17.9008 61.1968 17.7333 60.7451 17.3971C60.5595 17.2525 60.411 17.0657 60.3119 16.8523C60.2129 16.6389 60.166 16.405 60.1754 16.1699C60.1682 15.9432 60.2117 15.7179 60.3027 15.5101C60.3937 15.3024 60.5299 15.1175 60.7013 14.969C61.1925 14.619 61.7919 14.4544 62.393 14.5044H64.4354V14.0224C64.4512 13.7926 64.4197 13.562 64.3428 13.3448C64.2659 13.1277 64.1453 12.9287 63.9884 12.7601C63.6244 12.4474 63.1523 12.2901 62.6735 12.3218C62.2838 12.3195 61.8972 12.3909 61.534 12.5322C61.1953 12.6529 60.8829 12.8374 60.6136 13.0757L60.3331 12.6637C60.6441 12.3885 61.008 12.1797 61.4025 12.0501C61.8245 11.8994 62.2693 11.8223 62.7174 11.8222C63.3369 11.7826 63.9472 11.9872 64.4179 12.392ZM63.6553 17.0552C64.0141 16.8165 64.2874 16.4695 64.4354 16.0647V14.9515H62.4106C61.9636 14.9123 61.5163 15.0234 61.1396 15.2671C61.01 15.3723 60.9068 15.5063 60.8383 15.6585C60.7698 15.8107 60.7379 15.9769 60.7451 16.1437C60.7434 16.3131 60.7814 16.4806 60.8559 16.6328C60.9305 16.785 61.0397 16.9177 61.1746 17.0202C61.5316 17.2655 61.9609 17.3828 62.393 17.3532C62.834 17.3813 63.2734 17.2776 63.6553 17.0552Z" fill="#E9EEF1"/>
<path d="M67.3104 10.2882C67.2663 10.2465 67.231 10.1962 67.2069 10.1405C67.1828 10.0847 67.1703 10.0247 67.1702 9.96391C67.172 9.83889 67.2223 9.71946 67.3104 9.63082C67.4011 9.54703 67.52 9.50049 67.6435 9.50049C67.767 9.50049 67.8859 9.54703 67.9766 9.63082C68.0196 9.67294 68.0535 9.72353 68.0761 9.77933C68.0987 9.83513 68.1096 9.89494 68.1081 9.95514C68.1059 10.0465 68.0772 10.1353 68.0256 10.2108C67.974 10.2862 67.9016 10.3451 67.8173 10.3804C67.7329 10.4156 67.6402 10.4256 67.5502 10.4092C67.4603 10.3929 67.377 10.3509 67.3104 10.2882ZM67.3543 11.8661H67.924V17.8266H67.3543V11.8661Z" fill="#E9EEF1"/>
<path d="M70.3351 9.35889H70.9048V17.8264H70.3351V9.35889Z" fill="#E9EEF1"/>
<path d="M77.0139 12.392C77.2224 12.6119 77.3831 12.8726 77.4856 13.1578C77.5882 13.443 77.6306 13.7463 77.61 14.0487V17.8266H77.0665V16.766C76.8752 17.1138 76.5856 17.3973 76.2338 17.5811C75.8256 17.7832 75.3743 17.8825 74.919 17.8704C74.3565 17.9023 73.8009 17.7346 73.3499 17.3971C73.1633 17.2529 73.0135 17.0665 72.9129 16.8532C72.8123 16.6398 72.7638 16.4056 72.7714 16.1699C72.766 15.9426 72.8111 15.7169 72.9036 15.5093C72.9961 15.3016 73.1336 15.117 73.3061 14.969C73.7974 14.619 74.3967 14.4544 74.9978 14.5044H77.0402V14.0224C77.056 13.7926 77.0245 13.562 76.9476 13.3448C76.8707 13.1277 76.7501 12.9287 76.5932 12.7601C76.2256 12.4477 75.7509 12.2906 75.2696 12.3218C74.8828 12.3204 74.4992 12.3918 74.1388 12.5322C73.8156 12.6578 73.5185 12.8421 73.2623 13.0757L72.9818 12.6637C73.2916 12.3868 73.6558 12.1779 74.0512 12.0501C74.473 11.8987 74.9178 11.8216 75.366 11.8222C75.968 11.7937 76.558 11.9977 77.0139 12.392ZM76.2601 17.0552C76.6165 16.8138 76.8891 16.4677 77.0402 16.0647V14.9515H75.0066C74.5599 14.9149 74.1134 15.0259 73.7356 15.2671C73.606 15.3723 73.5028 15.5063 73.4343 15.6585C73.3659 15.8107 73.3339 15.9769 73.3412 16.1437C73.3412 16.3138 73.3808 16.4815 73.4568 16.6336C73.5329 16.7858 73.6433 16.9182 73.7794 17.0202C74.1364 17.2655 74.5658 17.3828 74.9978 17.3532C75.4387 17.3792 75.8775 17.2756 76.2601 17.0552Z" fill="#E9EEF1"/>
<path d="M84.4734 12.2077C84.9165 12.4595 85.2808 12.8299 85.5252 13.2772C85.7859 13.7586 85.9187 14.2987 85.9109 14.8461C85.9196 15.3908 85.7867 15.9285 85.5252 16.4064C85.2788 16.8544 84.9152 17.2271 84.4734 17.4845C84.0132 17.7428 83.4933 17.8759 82.9657 17.8703C82.4574 17.876 81.9573 17.7426 81.5194 17.4845C81.0922 17.236 80.7477 16.8671 80.5289 16.4239V17.8264H79.9767V9.35889H80.5464V13.2245C80.7764 12.7961 81.1188 12.4385 81.5369 12.1902C81.9721 11.943 82.4652 11.8159 82.9657 11.822C83.4933 11.8165 84.0132 11.9494 84.4734 12.2077ZM84.1666 17.0375C84.5341 16.8319 84.8375 16.5285 85.0431 16.1609C85.2565 15.7555 85.3681 15.3043 85.3681 14.8461C85.3681 14.388 85.2565 13.9367 85.0431 13.5313C84.8375 13.1637 84.5341 12.8603 84.1666 12.6547C83.7898 12.4421 83.3633 12.3332 82.9306 12.3392C82.5006 12.3322 82.0767 12.4412 81.7035 12.6547C81.3333 12.8569 81.029 13.1611 80.8269 13.5313C80.6135 13.9367 80.5019 14.388 80.5019 14.8461C80.5019 15.3043 80.6135 15.7555 80.8269 16.1609C81.029 16.5311 81.3333 16.8354 81.7035 17.0375C82.0767 17.251 82.5006 17.36 82.9306 17.353C83.3573 17.356 83.7774 17.2472 84.1491 17.0375H84.1666Z" fill="#E9EEF1"/>
<path d="M87.6552 9.35889H88.225V17.8264H87.6552V9.35889Z" fill="#E9EEF1"/>
<path d="M95.6675 14.9866H90.5484C90.5518 15.4226 90.6729 15.8497 90.8991 16.2225C91.1081 16.5762 91.4117 16.8646 91.7756 17.0552C92.1675 17.2598 92.6046 17.3623 93.0466 17.3532C93.4165 17.3563 93.7832 17.2847 94.1248 17.1429C94.4492 17.0112 94.7334 16.7966 94.9488 16.5205L95.2818 16.8975C95.0231 17.2151 94.6884 17.4622 94.3089 17.6162C93.8519 17.8043 93.3592 17.8901 92.8655 17.8674C92.3718 17.8446 91.8891 17.714 91.4513 17.4847C90.9977 17.2309 90.6219 16.8581 90.3644 16.4066C90.096 15.931 89.9598 15.3923 89.9699 14.8463C89.9616 14.3038 90.0881 13.7677 90.3381 13.2861C90.5748 12.8397 90.9296 12.4666 91.3636 12.2079C91.8069 11.955 92.3084 11.822 92.8187 11.822C93.329 11.822 93.8305 11.955 94.2738 12.2079C94.7045 12.4602 95.0566 12.8276 95.2906 13.2686C95.5416 13.7466 95.6682 14.2802 95.6588 14.8201L95.6675 14.9866ZM91.7055 12.6024C91.3747 12.7904 91.0995 13.0626 90.9078 13.3913C90.7003 13.7403 90.58 14.1341 90.5572 14.5395H95.1153C95.1024 14.1473 94.9903 13.7647 94.7895 13.4275C94.5887 13.0902 94.3057 12.8094 93.967 12.6112C93.6227 12.4155 93.2322 12.3155 92.8363 12.3218C92.4415 12.3166 92.052 12.4132 91.7055 12.6024Z" fill="#E9EEF1"/>
<path d="M101.181 17.4846C100.734 17.2279 100.364 16.8555 100.111 16.4065C99.858 15.9254 99.7256 15.3899 99.7256 14.8462C99.7256 14.3025 99.858 13.7671 100.111 13.286C100.364 12.837 100.734 12.4645 101.181 12.2078C101.648 11.9546 102.17 11.822 102.702 11.822C103.233 11.822 103.755 11.9546 104.222 12.2078C104.669 12.4645 105.039 12.837 105.292 13.286C105.545 13.7671 105.678 14.3025 105.678 14.8462C105.678 15.3899 105.545 15.9254 105.292 16.4065C105.039 16.8555 104.669 17.2279 104.222 17.4846C103.755 17.7378 103.233 17.8705 102.702 17.8705C102.17 17.8705 101.648 17.7378 101.181 17.4846ZM103.924 17.0376C104.294 16.8343 104.598 16.5303 104.801 16.161C105.014 15.7556 105.126 15.3043 105.126 14.8462C105.126 14.388 105.014 13.9368 104.801 13.5314C104.598 13.1621 104.294 12.8581 103.924 12.6548C103.55 12.4476 103.129 12.3389 102.702 12.3389C102.274 12.3389 101.853 12.4476 101.479 12.6548C101.11 12.8581 100.806 13.1621 100.602 13.5314C100.389 13.9368 100.277 14.388 100.277 14.8462C100.277 15.3043 100.389 15.7556 100.602 16.161C100.806 16.5303 101.11 16.8343 101.479 17.0376C101.853 17.2448 102.274 17.3535 102.702 17.3535C103.129 17.3535 103.55 17.2448 103.924 17.0376Z" fill="#E9EEF1"/>
<path d="M112.12 12.4711C112.348 12.724 112.524 13.0205 112.635 13.3428C112.747 13.6651 112.792 14.0067 112.768 14.3469V17.8531H112.198V14.417C112.237 13.8629 112.058 13.3156 111.699 12.8918C111.511 12.7111 111.288 12.5712 111.044 12.4807C110.799 12.3902 110.539 12.3511 110.279 12.3659C109.975 12.3503 109.671 12.3976 109.386 12.5047C109.101 12.6117 108.841 12.7763 108.622 12.9882C108.415 13.2164 108.255 13.4835 108.151 13.7738C108.047 14.0641 108.002 14.3721 108.017 14.68V17.8531H107.448V11.8925H107.991V13.1811C108.194 12.7725 108.515 12.4337 108.911 12.208C109.352 11.96 109.852 11.8359 110.358 11.8487C110.678 11.8285 110.999 11.8732 111.302 11.9801C111.605 12.0871 111.883 12.254 112.12 12.4711Z" fill="#E9EEF1"/>
<path d="M121.008 17.4499C120.851 17.5893 120.666 17.6939 120.465 17.7566C120.248 17.8342 120.02 17.8728 119.79 17.8706C119.571 17.8854 119.351 17.8549 119.145 17.781C118.938 17.7071 118.749 17.5914 118.589 17.4411C118.444 17.2801 118.331 17.0918 118.259 16.8871C118.187 16.6825 118.156 16.4657 118.168 16.249V12.357H117.073V11.8662H118.168V10.5688H118.738V11.8662H120.632V12.357H118.738V16.1964C118.717 16.5135 118.817 16.8269 119.019 17.0729C119.126 17.1795 119.256 17.262 119.398 17.3149C119.54 17.3678 119.691 17.3899 119.843 17.3797C120.183 17.3908 120.516 17.2717 120.772 17.0466L121.008 17.4499Z" fill="#E9EEF1"/>
<path d="M127.266 12.4707C127.495 12.7236 127.67 13.0201 127.782 13.3425C127.893 13.6648 127.939 14.0063 127.915 14.3466V17.8528H127.345V14.4167C127.365 14.1415 127.33 13.8651 127.243 13.6033C127.156 13.3416 127.018 13.0997 126.837 12.8915C126.65 12.7095 126.427 12.5687 126.182 12.4781C125.938 12.3875 125.677 12.3492 125.417 12.3656C125.114 12.3507 124.812 12.3983 124.528 12.5054C124.245 12.6125 123.986 12.7766 123.769 12.9879C123.561 13.2161 123.401 13.4831 123.298 13.7735C123.194 14.0638 123.148 14.3717 123.164 14.6797V17.8528H122.594V9.38525H123.164V13.1369C123.35 12.7377 123.657 12.4067 124.041 12.1903C124.479 11.9534 124.971 11.8355 125.469 11.8484C125.795 11.8233 126.123 11.8656 126.432 11.9726C126.742 12.0797 127.025 12.2493 127.266 12.4707Z" fill="#E9EEF1"/>
<path d="M135.313 14.9865H130.185C130.192 15.4234 130.316 15.8504 130.545 16.2225C130.754 16.5762 131.057 16.8645 131.421 17.0552C131.813 17.2598 132.25 17.3623 132.692 17.3532C133.062 17.3562 133.429 17.2847 133.77 17.1428C134.095 17.0111 134.379 16.7966 134.594 16.5205L134.928 16.8975C134.665 17.2111 134.331 17.4575 133.955 17.6162C133.498 17.8043 133.005 17.89 132.511 17.8673C132.017 17.8446 131.535 17.714 131.097 17.4847C130.641 17.2314 130.262 16.8587 130.001 16.4066C129.74 15.9286 129.607 15.391 129.616 14.8463C129.607 14.3037 129.734 13.7677 129.984 13.2861C130.22 12.8418 130.571 12.4692 131.001 12.2078C131.445 11.9496 131.951 11.8164 132.464 11.8222C132.975 11.8167 133.478 11.9499 133.919 12.2078C134.348 12.4627 134.7 12.8294 134.936 13.2685C135.187 13.7466 135.314 14.2802 135.304 14.8201L135.313 14.9865ZM131.351 12.6023C131.02 12.7923 130.742 13.0639 130.545 13.3913C130.34 13.7409 130.223 14.1348 130.203 14.5395H134.761C134.743 14.1373 134.625 13.7459 134.419 13.4C134.219 13.0662 133.935 12.7907 133.595 12.6015C133.255 12.4122 132.871 12.3157 132.482 12.3218C132.087 12.3165 131.698 12.4132 131.351 12.6023Z" fill="#E9EEF1"/>
<path d="M55.0562 31.8076H57.3966V37.1283C56.6825 37.6893 55.8713 38.1142 55.0036 38.3818C54.0907 38.6715 53.1388 38.8193 52.1811 38.8201C50.9026 38.8411 49.6395 38.5397 48.5083 37.9435C47.4398 37.3821 46.5478 36.5356 45.9313 35.4979C45.3284 34.4277 45.0117 33.2201 45.0117 31.9917C45.0117 30.7633 45.3284 29.5557 45.9313 28.4855C46.5487 27.4454 47.4443 26.5984 48.5171 26.0399C49.6562 25.4398 50.9289 25.1382 52.2162 25.1633C53.2596 25.1516 54.2955 25.3421 55.2665 25.7243C56.1519 26.0718 56.942 26.6245 57.5719 27.3371L56.0116 28.8623C55.5348 28.37 54.9621 27.9806 54.3289 27.7183C53.6957 27.456 53.0154 27.3262 52.3301 27.3371C51.4604 27.3222 50.6011 27.5273 49.8319 27.9333C49.101 28.3063 48.4926 28.8813 48.0788 29.5899C47.6706 30.331 47.4565 31.1632 47.4565 32.0092C47.4565 32.8553 47.6706 33.6875 48.0788 34.4285C48.4967 35.1383 49.1037 35.7178 49.8319 36.1027C50.5929 36.5146 51.4474 36.723 52.3126 36.7075C53.2717 36.7282 54.2189 36.4922 55.0562 36.0238V31.8076Z" fill="#E9EEF1"/>
<path d="M62.2172 38.1014C61.4129 37.675 60.7447 37.0311 60.2888 36.2431C59.8163 35.4227 59.5741 34.49 59.5876 33.5434C59.5737 32.6023 59.8161 31.675 60.2888 30.8611C60.7453 30.0758 61.4136 29.4349 62.2172 29.0116C63.0826 28.5734 64.039 28.345 65.0091 28.345C65.9791 28.345 66.9355 28.5734 67.8009 29.0116C68.6045 29.4349 69.2728 30.0758 69.7293 30.8611C70.202 31.675 70.4444 32.6023 70.4305 33.5434C70.444 34.49 70.2018 35.4227 69.7293 36.2431C69.2734 37.0311 68.6052 37.675 67.8009 38.1014C66.9355 38.5397 65.9791 38.768 65.0091 38.768C64.039 38.768 63.0826 38.5397 62.2172 38.1014ZM67.1698 35.8487C67.7271 35.2101 68.0342 34.3911 68.0342 33.5434C68.0342 32.6957 67.7271 31.8767 67.1698 31.2381C66.887 30.9505 66.5481 30.7243 66.1741 30.5735C65.8001 30.4227 65.399 30.3505 64.9959 30.3615C64.5953 30.3498 64.1967 30.4216 63.8254 30.5725C63.4541 30.7234 63.1184 30.9501 62.8396 31.2381C62.2908 31.8808 61.9892 32.6982 61.9892 33.5434C61.9892 34.3886 62.2908 35.206 62.8396 35.8487C63.1171 36.1384 63.4525 36.3662 63.8241 36.5173C64.1957 36.6683 64.595 36.7392 64.9959 36.7253C65.4019 36.7339 65.8051 36.6572 66.1796 36.5002C66.554 36.3431 66.8914 36.1092 67.1698 35.8136V35.8487Z" fill="#E9EEF1"/>
<path d="M74.5071 38.1011C73.7023 37.6722 73.0319 37.0291 72.5699 36.2428C72.1005 35.4216 71.8612 34.4889 71.8774 33.5431C71.8605 32.6027 72.0999 31.6754 72.5699 30.8608C73.032 30.0769 73.7026 29.4367 74.5071 29.0113C75.3703 28.5711 76.3255 28.3416 77.2945 28.3416C78.2635 28.3416 79.2187 28.5711 80.0819 29.0113C80.888 29.4344 81.5592 30.0752 82.0191 30.8608C82.4891 31.6754 82.7285 32.6027 82.7116 33.5431C82.7277 34.4889 82.4885 35.4216 82.0191 36.2428C81.5597 37.0311 80.8886 37.6749 80.0819 38.1011C79.2187 38.5413 78.2635 38.7708 77.2945 38.7708C76.3255 38.7708 75.3703 38.5413 74.5071 38.1011ZM79.4596 35.8484C80.0169 35.2097 80.324 34.3908 80.324 33.5431C80.324 32.6954 80.0169 31.8764 79.4596 31.2377C78.8776 30.6749 78.0997 30.3602 77.2901 30.3602C76.4805 30.3602 75.7026 30.6749 75.1206 31.2377C74.5767 31.8828 74.2784 32.6994 74.2784 33.5431C74.2784 34.3868 74.5767 35.2034 75.1206 35.8484C75.7026 36.4113 76.4805 36.7259 77.2901 36.7259C78.0997 36.7259 78.8776 36.4113 79.4596 35.8484Z" fill="#E9EEF1"/>
<path d="M95.097 28.4593V37.0845C95.097 40.6667 93.2679 42.4578 89.6098 42.4578C88.671 42.4632 87.7361 42.3394 86.8311 42.0897C86.0387 41.8873 85.2979 41.5199 84.6573 41.0116L85.7266 39.2585C86.2288 39.652 86.7994 39.9491 87.4096 40.135C88.0775 40.3535 88.7756 40.4659 89.4783 40.4681C90.3647 40.5447 91.2458 40.2709 91.9327 39.7054C92.2144 39.392 92.429 39.0243 92.5632 38.6248C92.6974 38.2253 92.7483 37.8026 92.7128 37.3826V36.848C92.3045 37.2951 91.7972 37.6403 91.2314 37.8559C90.6157 38.0896 89.9615 38.2056 89.303 38.1978C88.3893 38.2126 87.4861 38.0018 86.6733 37.5842C85.9084 37.1827 85.2709 36.5756 84.8326 35.8311C84.3718 35.0518 84.138 34.1592 84.1576 33.254C84.138 32.3544 84.3719 31.4675 84.8326 30.6945C85.2694 29.9489 85.9073 29.3414 86.6733 28.9414C87.4882 28.5306 88.3905 28.323 89.303 28.3366C89.9888 28.3282 90.67 28.4502 91.3103 28.696C91.9009 28.9301 92.4227 29.3101 92.8267 29.8004V28.4505L95.097 28.4593ZM91.8888 35.349C92.1774 35.0799 92.4049 34.7522 92.5561 34.3878C92.7073 34.0234 92.7787 33.6309 92.7654 33.2366C92.7811 32.8484 92.7107 32.4615 92.5591 32.1039C92.4076 31.7462 92.1786 31.4265 91.8888 31.1678C91.2608 30.6499 90.4721 30.3666 89.658 30.3666C88.8439 30.3666 88.0552 30.6499 87.4272 31.1678C87.1373 31.4265 86.9084 31.7462 86.7569 32.1039C86.6053 32.4615 86.5348 32.8484 86.5506 33.2366C86.5373 33.6309 86.6087 34.0234 86.7599 34.3878C86.9111 34.7522 87.1386 35.0799 87.4272 35.349C88.0552 35.8669 88.8439 36.1502 89.658 36.1502C90.4721 36.1502 91.2608 35.8669 91.8888 35.349Z" fill="#E9EEF1"/>
<path d="M98.2178 24.4971H100.602V38.6271H98.2178V24.4971Z" fill="#E9EEF1"/>
<path d="M113.25 34.3058H105.265C105.39 35.0097 105.783 35.6378 106.361 36.0589C107.003 36.5122 107.775 36.743 108.561 36.7163C109.072 36.7338 109.582 36.6446 110.057 36.4545C110.533 36.2643 110.963 35.9774 111.322 35.6119L112.602 37.0844C112.131 37.6375 111.528 38.0626 110.848 38.3204C110.097 38.6107 109.296 38.7535 108.491 38.7411C107.467 38.7603 106.453 38.5318 105.537 38.0749C104.716 37.6548 104.032 37.0103 103.564 36.2166C103.116 35.3923 102.88 34.4687 102.88 33.53C102.88 32.5914 103.116 31.6677 103.564 30.8434C104 30.0582 104.651 29.4136 105.44 28.9851C106.267 28.5326 107.197 28.3031 108.14 28.3189C109.058 28.3077 109.964 28.5342 110.77 28.9763C111.546 29.4032 112.182 30.0456 112.602 30.8259C113.053 31.6717 113.28 32.6195 113.259 33.5782C113.285 33.771 113.277 33.999 113.25 34.3058ZM106.238 30.9223C105.705 31.385 105.362 32.0279 105.274 32.728H111.041C110.968 32.026 110.63 31.3784 110.096 30.9174C109.561 30.4564 108.871 30.2168 108.166 30.2474C107.453 30.2221 106.757 30.4627 106.211 30.9223H106.238Z" fill="#E9EEF1"/>
<path d="M129.563 25.8647C130.37 26.2022 131.056 26.7731 131.536 27.5039C131.983 28.2716 132.219 29.1442 132.219 30.0327C132.219 30.9213 131.983 31.7939 131.536 32.5616C131.061 33.2982 130.373 33.8729 129.563 34.2095C128.607 34.6113 127.576 34.8055 126.539 34.7792H123.533V38.6273H121.061V25.2949H126.548C127.582 25.2743 128.609 25.4684 129.563 25.8647ZM128.889 32.0006C129.151 31.7456 129.361 31.4405 129.503 31.1032C129.646 30.7659 129.72 30.4034 129.72 30.0371C129.72 29.6709 129.646 29.3084 129.503 28.9711C129.361 28.6338 129.151 28.3286 128.889 28.0737C128.17 27.5698 127.301 27.3283 126.425 27.3899H123.533V32.6492H126.425C127.296 32.721 128.166 32.4921 128.889 32.0006Z" fill="#E9EEF1"/>
<path d="M134.656 24.4971H137.067V38.6271H134.683L134.656 24.4971Z" fill="#E9EEF1"/>
<path d="M147.488 29.4232C147.907 29.8473 148.23 30.3562 148.436 30.9156C148.641 31.4751 148.725 32.0721 148.68 32.6665V38.627H146.428V37.3911C146.125 37.8482 145.691 38.2026 145.183 38.4078C144.563 38.6609 143.898 38.7832 143.228 38.7673C142.541 38.7827 141.859 38.6481 141.23 38.3728C140.695 38.1427 140.236 37.7659 139.906 37.2859C139.524 36.6979 139.37 35.9908 139.471 35.2971C139.573 34.6034 139.924 33.9705 140.458 33.5167C141.398 32.87 142.529 32.5609 143.666 32.6402H146.296V32.4911C146.315 32.1878 146.268 31.8839 146.157 31.6008C146.047 31.3176 145.876 31.0621 145.656 30.852C145.117 30.4348 144.443 30.2319 143.763 30.2822C143.192 30.2824 142.624 30.3712 142.08 30.5452C141.57 30.7036 141.094 30.9563 140.677 31.2902L139.74 29.5371C140.318 29.1089 140.972 28.7937 141.668 28.608C142.443 28.3864 143.246 28.2772 144.052 28.2837C145.3 28.2181 146.527 28.6249 147.488 29.4232ZM145.314 36.6197C145.77 36.356 146.117 35.94 146.296 35.4451V34.2705H143.842C142.466 34.2705 141.782 34.7176 141.782 35.6205C141.77 35.8308 141.814 36.0406 141.909 36.2284C142.005 36.4163 142.148 36.5755 142.325 36.6898C142.748 36.969 143.249 37.1042 143.754 37.0755C144.306 37.0661 144.845 36.9088 145.314 36.6197Z" fill="#E9EEF1"/>
<path d="M161.058 28.459L156.298 39.451C155.99 40.3667 155.428 41.1756 154.676 41.7826C153.998 42.2451 153.191 42.4812 152.371 42.4575C151.859 42.458 151.349 42.3752 150.863 42.2121C150.416 42.0683 150.001 41.8357 149.645 41.5284L150.6 39.7753C150.836 39.9925 151.109 40.1647 151.407 40.2837C151.706 40.4105 152.028 40.476 152.354 40.4765C152.726 40.4932 153.092 40.3783 153.388 40.1522C153.724 39.857 153.983 39.4838 154.142 39.0652L154.317 38.6708L149.873 28.459H152.354L155.553 35.9798L158.77 28.459L161.058 28.459Z" fill="#E9EEF1"/>
<path d="M40.4269 25.847L34.0193 22.1479L28.76 27.2407L33.5722 31.8864L40.4269 27.9332C40.6097 27.8276 40.7612 27.6755 40.8659 27.4922C40.9707 27.309 41.0248 27.1011 41.0229 26.89C41.0267 26.6786 40.9733 26.4701 40.8684 26.2865C40.7635 26.1029 40.6109 25.9511 40.4269 25.847Z" fill="#E9EEF1"/>
<path d="M32.9407 21.5259L25.8932 17.4587L10.4571 9.55225L27.8917 26.3996L32.9407 21.5259Z" fill="#E9EEF1"/>
<path d="M10.7115 44.6839L25.9196 36.3129L32.485 32.5174L27.8919 28.082L10.7115 44.6839Z" fill="#E9EEF1"/>
<path d="M9.42298 10.2268L9.41422 44.2633L27.0241 27.2407L9.42298 10.2268Z" fill="#E9EEF1"/>
</svg>
