<svg width="264" height="37" viewBox="0 0 264 37" fill="none" xmlns="http://www.w3.org/2000/svg">
<path d="M0.0051586 3.00528V24.0562C0.00424396 21.9453 0.559275 19.8715 1.61441 18.0433C2.66954 16.2151 4.18755 14.6971 6.01571 13.6419V9.02106C6.01571 8.62614 6.09353 8.23509 6.24471 7.87026C6.39589 7.50542 6.61748 7.17395 6.89681 6.89478C7.17614 6.61561 7.50774 6.39421 7.87267 6.24324C8.23759 6.09227 8.62869 6.01468 9.02361 6.01491H18.0473C20.7961 6.01809 23.4609 6.96241 25.5983 8.69073C27.7358 10.4191 29.217 12.8272 29.7955 15.5144C30.374 18.2016 30.0149 21.0059 28.7779 23.4607C27.541 25.9154 25.5008 27.8726 22.9968 29.0065C21.9582 31.3008 20.2274 33.2124 18.0473 34.4731C17.0153 35.0738 15.8983 35.5148 14.7342 35.7808C13.8477 35.9841 12.941 36.0864 12.0315 36.086H18.0473C28.0099 36.086 36.0894 28.0091 36.0894 18.0447C36.0894 8.08033 28.0099 0 18.0473 0H3.01131C2.21418 -3.35247e-08 1.44969 0.316599 0.885949 0.880173C0.322212 1.44375 0.00538979 2.20815 0.0051586 3.00528Z" fill="#0141CB"/>
<path d="M0.00523269 24.0561V33.0772C0.00546388 33.8745 0.322378 34.6391 0.886278 35.2029C1.45018 35.7666 2.21489 36.0833 3.01225 36.0833H12.0316C12.9411 36.0837 13.8478 35.9814 14.7343 35.7782C15.8984 35.5121 17.0154 35.0711 18.0474 34.4704C20.7066 32.9196 22.6702 30.4086 23.5343 27.4539C24.3983 24.4993 24.0969 21.3259 22.6922 18.5867C21.2875 15.8476 18.8863 13.751 15.9827 12.7285C13.0791 11.706 9.89405 11.8354 7.08293 13.0899C6.71759 13.2546 6.36136 13.4389 6.01579 13.6418C4.18601 14.6967 2.66654 16.2152 1.61042 18.0442C0.554309 19.8733 -0.00114912 21.9484 1.78485e-06 24.0605L0.00523269 24.0561ZM6.02102 24.0561C6.02102 22.8663 6.37384 21.7032 7.03486 20.7139C7.69588 19.7246 8.63542 18.9536 9.73466 18.4982C10.8339 18.0429 12.0435 17.9238 13.2104 18.1559C14.3774 18.388 15.4493 18.961 16.2906 19.8023C17.1319 20.6436 17.7049 21.7155 17.937 22.8825C18.1691 24.0494 18.05 25.259 17.5947 26.3582C17.1393 27.4575 16.3683 28.397 15.379 29.058C14.3897 29.7191 13.2266 30.0719 12.0368 30.0719C11.2445 30.0793 10.4586 29.9288 9.7251 29.6292C8.99158 29.3296 8.3251 28.8868 7.76458 28.3268C7.20405 27.7668 6.76072 27.1007 6.46046 26.3674C6.1602 25.6341 6.00904 24.8484 6.01579 24.0561H6.02102Z" fill="#276BFE"/>
<path d="M61.2574 18.2334C61.2574 24.0644 57.0826 27.1296 52.2082 27.1296H48.5377C48.2611 27.1391 47.9855 27.0917 47.728 26.9903C47.4704 26.8889 47.2365 26.7357 47.0406 26.5401C46.8447 26.3445 46.6911 26.1108 46.5893 25.8534C46.4875 25.5961 46.4396 25.3205 46.4487 25.0439V11.6214C46.4396 11.3448 46.4875 11.0692 46.5893 10.8118C46.6911 10.5544 46.8447 10.3207 47.0406 10.1252C47.2365 9.92961 47.4704 9.77637 47.728 9.67496C47.9855 9.57355 48.2611 9.52611 48.5377 9.53562L52.2082 9.53562C57.0826 9.53562 61.2574 12.6008 61.2574 18.2334ZM57.46 18.2334C57.46 14.3612 55.5077 12.7277 52.2082 12.7277H50.22V23.9375H52.2082C55.5239 23.9375 57.46 22.3041 57.46 18.2334Z" fill="#E9EEF1"/>
<path d="M72.8999 15.6173C72.8999 16.6228 72.1222 17.3256 70.5636 17.3256C68.6763 17.3256 67.5212 18.7606 67.4463 19.6392V25.4474C67.4463 25.9342 67.253 26.401 66.9088 26.7451C66.5647 27.0893 66.0979 27.2827 65.6111 27.2827C65.1244 27.2827 64.6576 27.0893 64.3134 26.7451C63.9693 26.401 63.7759 25.9342 63.7759 25.4474V15.8451C63.7759 15.6041 63.8234 15.3654 63.9156 15.1428C64.0078 14.9201 64.143 14.7178 64.3134 14.5474C64.4838 14.377 64.6862 14.2418 64.9088 14.1496C65.1315 14.0573 65.3701 14.0099 65.6111 14.0099C65.8521 14.0099 66.0908 14.0573 66.3134 14.1496C66.5361 14.2418 66.7384 14.377 66.9088 14.5474C67.0792 14.7178 67.2144 14.9201 67.3066 15.1428C67.3989 15.3654 67.4463 15.6041 67.4463 15.8451V16.8506C67.5472 15.9199 69.0733 13.922 71.1916 13.922C71.4189 13.9063 71.6469 13.9393 71.8604 14.0187C72.0739 14.0982 72.268 14.2223 72.4297 14.3828C72.5914 14.5433 72.717 14.7364 72.7981 14.9493C72.8792 15.1622 72.9139 15.3899 72.8999 15.6173Z" fill="#E9EEF1"/>
<path d="M87.2986 20.6446C87.2986 25.1448 83.3939 27.3054 80.5337 27.3054C77.6735 27.3054 73.772 25.1448 73.772 20.6446C73.772 16.1444 77.6442 13.9089 80.5337 13.9089C83.4232 13.9089 87.2986 16.1704 87.2986 20.6446ZM77.3937 20.6446C77.3937 22.7564 78.8514 24.1133 80.5337 24.1133C82.216 24.1133 83.651 22.7564 83.651 20.6446C83.651 18.4579 82.1932 17.101 80.5337 17.101C78.8742 17.101 77.3937 18.4579 77.3937 20.6446Z" fill="#E9EEF1"/>
<path d="M102.807 20.5958C102.807 25.1708 99.5142 27.3054 96.7484 27.3054C94.796 27.3054 93.6311 26.2771 93.2797 25.5483V30.273C93.2653 30.7642 93.0602 31.2304 92.7079 31.573C92.3556 31.9156 91.8838 32.1075 91.3924 32.1082C90.9064 32.1056 90.4411 31.9114 90.0975 31.5678C89.7539 31.2242 89.5597 30.7589 89.5572 30.273V15.793C89.5755 15.31 89.7791 14.8527 90.1257 14.5158C90.4722 14.179 90.9351 13.9885 91.4184 13.9838C91.9002 13.9854 92.3621 14.1757 92.7051 14.5139C93.0482 14.8521 93.2451 15.3113 93.2536 15.793V15.8938C93.6799 14.8623 95.014 13.9089 96.7484 13.9089C99.4882 13.9089 102.807 16.1216 102.807 20.5958ZM99.1367 20.5958C99.1367 18.2562 97.6041 17.049 96.0683 17.049C94.8123 17.049 93.1039 17.9568 93.1039 20.5958C93.1039 23.2347 94.8123 24.1751 96.0683 24.1751C97.6041 24.1653 99.1367 22.9581 99.1367 20.5958Z" fill="#E9EEF1"/>
<path d="M115.549 12.8287L109.09 12.8287V17.202H114.368C114.804 17.1932 115.226 17.3573 115.542 17.6584C115.858 17.9595 116.042 18.3733 116.054 18.8094C116.048 19.0245 116 19.2364 115.912 19.4328C115.824 19.6292 115.698 19.8062 115.542 19.9535C115.385 20.1009 115.2 20.2158 114.999 20.2914C114.798 20.367 114.583 20.4019 114.368 20.3941H109.09V25.3954C109.094 25.8971 108.901 26.3804 108.554 26.7421C108.206 27.1039 107.731 27.3153 107.229 27.3315C106.721 27.3205 106.238 27.1122 105.881 26.7507C105.525 26.3893 105.323 25.9031 105.319 25.3954V11.6215C105.31 11.3461 105.357 11.0718 105.457 10.8153C105.558 10.5588 105.71 10.3257 105.904 10.1303C106.098 9.93486 106.331 9.78129 106.586 9.67904C106.842 9.57678 107.116 9.52799 107.392 9.5357L115.527 9.5357C115.963 9.5357 116.382 9.70918 116.691 10.018C117 10.3267 117.173 10.7455 117.173 11.1822C117.173 11.6189 117 12.0377 116.691 12.3465C116.382 12.6552 115.963 12.8287 115.527 12.8287H115.549Z" fill="#E9EEF1"/>
<path d="M119.594 10.7397C119.584 10.3696 119.685 10.0051 119.883 9.69265C120.082 9.38022 120.369 9.13407 120.708 8.98568C121.047 8.83729 121.423 8.79339 121.787 8.8596C122.151 8.92581 122.488 9.09914 122.753 9.35739C123.018 9.61564 123.2 9.9471 123.276 10.3094C123.352 10.6717 123.318 11.0484 123.179 11.3914C123.039 11.7343 122.801 12.0279 122.494 12.2347C122.187 12.4415 121.825 12.552 121.455 12.5521C120.97 12.5514 120.504 12.3618 120.157 12.0234C119.809 11.685 119.607 11.2245 119.594 10.7397ZM123.29 15.8451V25.4214C123.29 25.6624 123.243 25.901 123.151 26.1237C123.058 26.3464 122.923 26.5487 122.753 26.7191C122.582 26.8895 122.38 27.0247 122.157 27.1169C121.935 27.2091 121.696 27.2566 121.455 27.2566C121.214 27.2566 120.975 27.2091 120.753 27.1169C120.53 27.0247 120.328 26.8895 120.157 26.7191C119.987 26.5487 119.852 26.3464 119.76 26.1237C119.667 25.901 119.62 25.6624 119.62 25.4214V15.8451C119.62 15.6041 119.667 15.3654 119.76 15.1428C119.852 14.9201 119.987 14.7178 120.157 14.5474C120.328 14.377 120.53 14.2418 120.753 14.1495C120.975 14.0573 121.214 14.0098 121.455 14.0098C121.696 14.0098 121.935 14.0573 122.157 14.1495C122.38 14.2418 122.582 14.377 122.753 14.5474C122.923 14.7178 123.058 14.9201 123.151 15.1428C123.243 15.3654 123.29 15.6041 123.29 15.8451Z" fill="#E9EEF1"/>
<path d="M139.075 10.9936V25.4703C139.062 25.9549 138.861 26.4154 138.514 26.7539C138.167 27.0923 137.702 27.2821 137.217 27.2828C136.738 27.2871 136.276 27.1019 135.932 26.7673C135.588 26.4327 135.391 25.976 135.382 25.4964C135.079 26.2025 133.872 27.3056 131.887 27.3056C129.121 27.3056 125.828 25.171 125.828 20.596C125.828 16.1218 129.147 13.9091 131.887 13.9091C133.596 13.9091 134.904 14.8397 135.356 15.8615V10.9936C135.368 10.5127 135.566 10.0551 135.908 9.71703C136.25 9.379 136.71 9.18691 137.191 9.18115C137.679 9.1808 138.147 9.36943 138.499 9.70741C138.85 10.0454 139.057 10.5064 139.075 10.9936ZM135.532 20.596C135.532 17.957 133.823 17.0492 132.564 17.0492C131.031 17.0492 129.499 18.2564 129.499 20.596C129.499 22.9355 131.031 24.1753 132.564 24.1753C133.823 24.1655 135.532 23.2609 135.532 20.596Z" fill="#E9EEF1"/>
<path d="M154.574 20.0166C154.574 21.4743 153.796 21.9689 152.296 21.9689L145.411 21.868C145.736 23.4267 146.969 24.2792 148.704 24.2792C149.326 24.2861 149.944 24.1585 150.513 23.905C151.014 23.7033 151.391 23.4755 151.87 23.4755C152.035 23.4698 152.2 23.4987 152.353 23.5601C152.507 23.6215 152.646 23.7142 152.762 23.8323C152.878 23.9504 152.968 24.0913 153.027 24.2461C153.086 24.4009 153.111 24.5662 153.103 24.7315C153.103 25.1871 152.927 25.6882 152.221 26.2413C151.124 26.9324 149.847 27.2823 148.551 27.2468C145.157 27.2468 141.587 25.2098 141.587 20.6348C141.587 16.0598 145.384 13.8992 148.251 13.8992C151.118 13.8992 154.574 16.1964 154.574 20.0166ZM145.401 19.4146H150.955C150.705 17.7551 149.546 17.101 148.241 17.101C146.937 17.101 145.635 17.7551 145.411 19.4146H145.401Z" fill="#E9EEF1"/>
<path d="M158.931 27.2567C158.692 27.2585 158.454 27.213 158.233 27.123C158.011 27.033 157.809 26.9002 157.639 26.7322C157.468 26.5642 157.332 26.3643 157.239 26.1439C157.146 25.9235 157.097 25.6868 157.096 25.4476V11.0164C157.096 10.5296 157.289 10.0628 157.633 9.71867C157.977 9.3745 158.444 9.18115 158.931 9.18115C159.418 9.18115 159.884 9.3745 160.229 9.71867C160.573 10.0628 160.766 10.5296 160.766 11.0164V25.4476C160.764 25.6868 160.716 25.9235 160.622 26.1439C160.529 26.3643 160.394 26.5642 160.223 26.7322C160.053 26.9002 159.851 27.033 159.629 27.123C159.407 27.213 159.17 27.2585 158.931 27.2567Z" fill="#E9EEF1"/>
<path d="M163.782 10.7397C163.773 10.3696 163.873 10.0051 164.072 9.69265C164.27 9.38022 164.558 9.13407 164.897 8.98568C165.236 8.83729 165.612 8.79339 165.976 8.8596C166.34 8.92581 166.676 9.09914 166.941 9.35739C167.207 9.61564 167.389 9.9471 167.465 10.3094C167.54 10.6717 167.507 11.0484 167.367 11.3914C167.228 11.7343 166.99 12.0279 166.682 12.2347C166.375 12.4415 166.014 12.552 165.644 12.5521C165.158 12.5514 164.693 12.3618 164.345 12.0234C163.998 11.685 163.796 11.2245 163.782 10.7397ZM167.479 15.8451V25.4214C167.479 25.9081 167.285 26.3749 166.941 26.7191C166.597 27.0633 166.13 27.2566 165.644 27.2566C165.157 27.2566 164.69 27.0633 164.346 26.7191C164.002 26.3749 163.808 25.9081 163.808 25.4214V15.8451C163.808 15.3583 164.002 14.8915 164.346 14.5474C164.69 14.2032 165.157 14.0098 165.644 14.0098C166.13 14.0098 166.597 14.2032 166.941 14.5474C167.285 14.8915 167.479 15.3583 167.479 15.8451Z" fill="#E9EEF1"/>
<path d="M178.285 25.3204C178.285 26.5764 177.182 27.2565 175.295 27.2565C173.486 27.2565 171.599 26.6773 171.599 22.8572V16.9253H170.997C170.803 16.9345 170.609 16.9043 170.427 16.8364C170.245 16.7686 170.079 16.6645 169.938 16.5305C169.797 16.3965 169.686 16.2353 169.609 16.0568C169.533 15.8783 169.493 15.6861 169.493 15.4919C169.493 15.2977 169.533 15.1056 169.609 14.927C169.686 14.7485 169.797 14.5874 169.938 14.4534C170.079 14.3194 170.245 14.2153 170.427 14.1474C170.609 14.0795 170.803 14.0493 170.997 14.0586H171.599V12.4739C171.599 11.9872 171.792 11.5204 172.136 11.1762C172.48 10.832 172.947 10.6387 173.434 10.6387C173.921 10.6387 174.387 10.832 174.731 11.1762C175.076 11.5204 175.269 11.9872 175.269 12.4739V14.0586L176.828 14.0586C177.022 14.0493 177.215 14.0795 177.397 14.1474C177.579 14.2153 177.746 14.3194 177.886 14.4534C178.027 14.5874 178.139 14.7485 178.215 14.927C178.292 15.1056 178.331 15.2977 178.331 15.4919C178.331 15.6861 178.292 15.8783 178.215 16.0568C178.139 16.2353 178.027 16.3965 177.886 16.5305C177.746 16.6645 177.579 16.7686 177.397 16.8364C177.215 16.9043 177.022 16.9345 176.828 16.9253H175.269V22.9841C175.269 23.713 175.497 24.0904 176.024 24.0904C176.274 24.0904 176.704 23.9896 176.981 24.0123C177.784 23.9896 178.285 24.4907 178.285 25.3204Z" fill="#E9EEF1"/>
<path d="M193.042 15.6433C193.031 15.938 192.963 16.2277 192.84 16.4958L186.43 30.7252C186.026 31.6298 185.375 32.0268 184.669 32.0268C184.453 32.0269 184.239 31.9837 184.039 31.8999C183.839 31.8162 183.659 31.6934 183.507 31.5388C183.356 31.3843 183.236 31.2011 183.157 30.9999C183.077 30.7988 183.038 30.5837 183.042 30.3673C183.053 30.0717 183.122 29.781 183.244 29.5115L184.601 26.4724L180 16.4893C179.878 16.221 179.811 15.9312 179.801 15.6368C179.802 15.417 179.846 15.1996 179.931 14.9969C180.016 14.7943 180.14 14.6105 180.296 14.4562C180.453 14.3019 180.638 14.1801 180.842 14.0979C181.046 14.0157 181.264 13.9747 181.484 13.9773C182.186 13.9773 182.84 14.3807 183.244 15.2788L186.381 22.5188L189.635 15.2788C190.012 14.3742 190.666 13.9773 191.369 13.9773C191.589 13.9738 191.808 14.0144 192.012 14.0968C192.216 14.1792 192.401 14.3017 192.557 14.457C192.713 14.6123 192.836 14.7974 192.919 15.0011C193.003 15.2049 193.044 15.4232 193.042 15.6433Z" fill="#E9EEF1"/>
<path d="M208.299 11.2179C208.299 11.658 208.124 12.0801 207.813 12.3913C207.502 12.7025 207.08 12.8774 206.64 12.8774H203.321V25.3464C203.336 25.6049 203.298 25.8637 203.209 26.1071C203.121 26.3504 202.984 26.573 202.806 26.7614C202.628 26.9498 202.414 27.0998 202.176 27.2024C201.939 27.305 201.682 27.3579 201.424 27.3579C201.165 27.3579 200.908 27.305 200.671 27.2024C200.433 27.0998 200.219 26.9498 200.041 26.7614C199.863 26.573 199.726 26.3504 199.638 26.1071C199.549 25.8637 199.511 25.6049 199.527 25.3464V12.8774H196.224C195.998 12.8873 195.773 12.8515 195.561 12.772C195.35 12.6925 195.157 12.571 194.994 12.4149C194.831 12.2588 194.701 12.0712 194.612 11.8635C194.523 11.6558 194.478 11.4323 194.478 11.2065C194.478 10.9806 194.523 10.7571 194.612 10.5494C194.701 10.3417 194.831 10.1542 194.994 9.99801C195.157 9.84187 195.35 9.7204 195.561 9.64092C195.773 9.56144 195.998 9.5256 196.224 9.53556L206.636 9.53556C206.856 9.53555 207.074 9.5792 207.277 9.66398C207.48 9.74876 207.664 9.873 207.819 10.0295C207.974 10.1859 208.096 10.3716 208.178 10.5756C208.261 10.7795 208.302 10.9979 208.299 11.2179Z" fill="#E9EEF1"/>
<path d="M220.817 20.6446C220.817 25.1448 216.912 27.3054 214.056 27.3054C211.199 27.3054 207.287 25.1448 207.287 20.6446C207.287 16.1444 211.16 13.9089 214.052 13.9089C216.945 13.9089 220.817 16.1704 220.817 20.6446ZM210.912 20.6446C210.912 22.7564 212.37 24.1133 214.056 24.1133C215.741 24.1133 217.173 22.7564 217.173 20.6446C217.173 18.4579 215.712 17.101 214.056 17.101C212.399 17.101 210.912 18.4579 210.912 20.6446Z" fill="#E9EEF1"/>
<path d="M235.294 25.6493C235.289 26.074 235.118 26.48 234.818 26.7803C234.517 27.0807 234.111 27.2517 233.687 27.2567C233.473 27.2586 233.261 27.2146 233.066 27.1276C232.87 27.0406 232.696 26.9126 232.554 26.7524L228.324 21.9789L226.993 23.2088V25.4476C226.993 25.9343 226.8 26.4011 226.456 26.7453C226.111 27.0894 225.645 27.2828 225.158 27.2828C224.671 27.2828 224.204 27.0894 223.86 26.7453C223.516 26.4011 223.323 25.9343 223.323 25.4476V11.0164C223.323 10.5296 223.516 10.0628 223.86 9.71867C224.204 9.3745 224.671 9.18115 225.158 9.18115C225.645 9.18115 226.111 9.3745 226.456 9.71867C226.8 10.0628 226.993 10.5296 226.993 11.0164V18.9104L231.549 14.5111C231.879 14.1861 232.319 13.9978 232.782 13.984C233.22 13.9882 233.64 14.1645 233.949 14.4749C234.259 14.7853 234.435 15.2049 234.438 15.6435C234.447 15.8607 234.411 16.0774 234.333 16.2804C234.255 16.4834 234.137 16.6686 233.986 16.8246L230.644 19.8898L234.842 24.5657C235.124 24.8564 235.286 25.2438 235.294 25.6493Z" fill="#E9EEF1"/>
<path d="M249.169 20.0166C249.169 21.4743 248.391 21.9689 246.891 21.9689L239.993 21.868C240.318 23.4267 241.551 24.2792 243.286 24.2792C243.91 24.2858 244.528 24.1582 245.098 23.905C245.599 23.7033 245.977 23.4755 246.455 23.4755C246.62 23.4698 246.785 23.4986 246.938 23.5601C247.092 23.6216 247.231 23.7143 247.347 23.8325C247.462 23.9506 247.552 24.0916 247.61 24.2464C247.669 24.4012 247.694 24.5664 247.685 24.7315C247.685 25.1871 247.509 25.6882 246.806 26.2413C245.709 26.9324 244.432 27.2823 243.136 27.2468C239.742 27.2468 236.172 25.2098 236.172 20.6348C236.172 16.0598 239.97 13.8992 242.833 13.8992C245.697 13.8992 249.169 16.1964 249.169 20.0166ZM239.993 19.4146H245.55C245.297 17.7551 244.141 17.101 242.833 17.101C241.525 17.101 240.22 17.7551 239.993 19.4146Z" fill="#E9EEF1"/>
<path d="M264 20.0425V25.4473C264 25.9345 263.806 26.4017 263.462 26.7461C263.118 27.0906 262.65 27.2841 262.163 27.2841C261.676 27.2841 261.209 27.0906 260.864 26.7461C260.52 26.4017 260.326 25.9345 260.326 25.4473V20.0425C260.326 17.9567 259.295 17.0489 257.912 17.0489C255.751 17.0489 255.146 19.1607 255.097 19.652V25.4473C255.097 25.934 254.904 26.4008 254.56 26.745C254.216 27.0892 253.749 27.2825 253.262 27.2825C252.775 27.2825 252.309 27.0892 251.964 26.745C251.62 26.4008 251.427 25.934 251.427 25.4473V15.8449C251.427 15.3582 251.62 14.8914 251.964 14.5472C252.309 14.2031 252.775 14.0097 253.262 14.0097C253.749 14.0097 254.216 14.2031 254.56 14.5472C254.904 14.8914 255.097 15.3582 255.097 15.8449V16.8504C255.198 15.9198 256.63 13.9219 259.295 13.9219C261.862 13.9316 264 15.6855 264 20.0425Z" fill="#E9EEF1"/>
</svg>
